<svg width="36" height="36" viewBox="0 0 36 36" fill="none" xmlns="http://www.w3.org/2000/svg">
<circle opacity="0.1" cx="17.9419" cy="17.7161" r="17.3999" fill="black"/>
<path d="M22.6086 17.0494C22.6086 14.7161 20.942 13.0494 18.6086 13.0494" stroke="#8CC63F" stroke-linecap="round" stroke-linejoin="round"/>
<path d="M25.2753 17.0494C25.2753 13.0494 22.6086 10.3828 18.6086 10.3828" stroke="#8CC63F" stroke-linecap="round" stroke-linejoin="round"/>
<path fill-rule="evenodd" clip-rule="evenodd" d="M11.5064 10.642C12.0071 10.2154 12.7822 9.68926 13.6188 9.71713L13.6433 9.71794L13.6677 9.72056C14.1315 9.77033 14.5526 10.0018 14.9134 10.3503L14.9156 10.3524C15.1627 10.5932 15.5986 11.1027 15.9777 11.5966C16.1698 11.8469 16.3575 12.1065 16.5061 12.3389C16.5803 12.4548 16.6497 12.5717 16.7061 12.6825C16.757 12.7823 16.818 12.9166 16.848 13.0596C17.0057 13.7921 16.6751 14.3691 16.4891 14.6937C16.4819 14.7064 16.4748 14.7187 16.468 14.7306L16.4527 14.7575C16.3986 14.851 16.3296 14.9552 16.2697 15.0458L16.2631 15.0558C16.1371 15.2463 16.0276 15.4142 15.9575 15.564C15.9373 15.6072 15.9248 15.6399 15.9173 15.6632C16.1712 16.2643 16.5271 16.86 16.9582 17.4174C17.4777 18.0366 18.2771 18.8047 18.6836 19.091C19.095 19.3808 19.5198 19.6235 19.9516 19.8101C19.9785 19.8022 20.0178 19.7879 20.0707 19.7634C20.228 19.6907 20.4023 19.5782 20.5939 19.4528L20.6028 19.4469C20.6873 19.3917 20.7829 19.3291 20.8682 19.2794L20.8729 19.2767L20.9004 19.2612C20.9118 19.2548 20.9236 19.2481 20.9358 19.2413C21.2659 19.0551 21.8424 18.7299 22.582 18.885L22.5836 18.8853L22.5804 18.8846L22.582 18.885C22.7227 18.9141 22.856 18.9735 22.9558 19.0233C23.0656 19.0781 23.182 19.1455 23.298 19.2178C23.5304 19.3626 23.7908 19.5456 24.0425 19.7334C24.5367 20.102 25.0505 20.5287 25.2962 20.7765L25.2941 20.7744L25.2983 20.7786L25.2962 20.7765C25.6457 21.124 25.9002 21.5519 25.9389 22.051L25.9398 22.0628L25.9403 22.0747C25.9745 22.8958 25.462 23.6499 25.0402 24.1402C24.6128 24.6372 24.1246 25.0376 23.8694 25.1988C23.8049 25.2396 23.9146 25.1665 23.8694 25.1988C22.8549 25.9244 21.5865 25.8353 20.2856 25.2499C20.2548 25.236 20.3119 25.2606 20.2856 25.2499C18.8948 24.6833 17.2924 23.5296 15.7891 22.1829C15.2524 21.7021 14.2185 20.6887 13.8929 20.316C13.895 20.3184 13.8972 20.3207 13.8994 20.3231L13.8857 20.3078C13.8881 20.3105 13.8904 20.3132 13.8929 20.316C12.3764 18.6722 11.058 16.8667 10.4187 15.3532C10.4045 15.3196 10.4319 15.3813 10.4187 15.3532C10.1102 14.6955 9.94189 14.05 9.94189 13.44C9.94189 12.8323 10.1137 12.2719 10.4545 11.7882C10.4471 11.8002 10.4402 11.8117 10.4338 11.8229L10.4714 11.7644C10.4657 11.7723 10.4601 11.7803 10.4545 11.7882C10.5344 11.659 10.6716 11.4853 10.8248 11.3121C11.003 11.1106 11.2367 10.8717 11.5064 10.642ZM19.9156 19.8183L19.9175 19.8181L19.9156 19.8183ZM15.9073 15.7017L15.9075 15.7002L15.9073 15.7017ZM11.5921 12.4836C11.5909 12.4855 11.5913 12.4847 11.5913 12.4847L11.574 12.515L11.5537 12.5432C11.3721 12.7955 11.2752 13.0893 11.2752 13.44C11.2752 13.8096 11.3791 14.2641 11.6307 14.7973L11.6368 14.8103L11.6424 14.8235C12.1934 16.1347 13.3995 17.8159 14.8792 19.4187L14.8861 19.4263L14.8929 19.4341C15.1571 19.7386 16.1553 20.7208 16.6788 21.1898C18.1438 22.5023 19.6159 23.5398 20.7986 24.0192L20.8109 24.0241L20.823 24.0296C21.9174 24.5246 22.6325 24.4507 23.1053 24.1059L23.1287 24.0889L23.1534 24.074C23.2574 24.0112 23.6604 23.6998 24.0294 23.2708C24.4134 22.8242 24.6134 22.4188 24.6085 22.143C24.5984 22.0522 24.5452 21.9097 24.3548 21.7207L24.3505 21.7165C24.1761 21.5402 23.7235 21.1588 23.2453 20.8022C23.0102 20.6267 22.7822 20.4674 22.5928 20.3493C22.4978 20.2902 22.42 20.246 22.3606 20.2164C22.3239 20.1981 22.3038 20.1902 22.2977 20.1878C22.0862 20.147 21.9126 20.222 21.5532 20.4238L21.5352 20.4339C21.4839 20.464 21.4179 20.507 21.3241 20.5684L21.309 20.5783C21.1351 20.6921 20.8849 20.856 20.6301 20.9737C20.4056 21.0775 19.9807 21.2432 19.5511 21.0874L19.5369 21.0823L19.523 21.0765C18.9616 20.8436 18.4234 20.5386 17.9157 20.1811C17.3791 19.803 16.4895 18.9353 15.9276 18.2634L15.9197 18.254L15.9122 18.2443C15.3925 17.5743 14.9559 16.841 14.6475 16.0817L14.6439 16.0729L14.6406 16.064C14.4811 15.6369 14.6483 15.2162 14.7497 14.9992C14.8654 14.7517 15.0271 14.5074 15.1407 14.3358C15.1442 14.3305 15.1476 14.3253 15.151 14.3202C15.2192 14.2171 15.2659 14.146 15.2977 14.0913L15.3096 14.0703C15.5157 13.7089 15.5854 13.5435 15.5462 13.3482C15.5437 13.3422 15.5359 13.3228 15.518 13.2876C15.4881 13.229 15.4433 13.1518 15.3829 13.0573C15.2624 12.8688 15.0995 12.6423 14.9199 12.4084C14.5566 11.9349 14.1664 11.4844 13.9861 11.3083C13.7982 11.1272 13.649 11.066 13.5485 11.0494C13.2502 11.0524 12.825 11.2702 12.371 11.6569C12.1567 11.8395 11.9673 12.0328 11.8235 12.1955C11.7518 12.2765 11.6937 12.3474 11.6511 12.4026C11.6142 12.4506 11.5966 12.4769 11.5921 12.4836Z" fill="#8CC63F"/>
</svg>
