<svg width="65" height="65" viewBox="0 0 65 65" fill="none" xmlns="http://www.w3.org/2000/svg">
<path d="M28.7693 15.9103L26.9638 13.1343C14.4716 21.5312 7.53149 31.7337 7.53149 40.1307C7.53149 48.25 13.5011 52.0676 18.5668 52.0676C24.9517 52.0676 29.4622 46.6533 29.4622 40.9635C29.4622 36.1754 26.4085 32.0802 22.3133 30.5522C21.1341 30.1347 20.0237 29.7883 20.0237 27.7762C20.0237 25.2089 21.898 21.3935 28.7693 15.9103ZM56.3209 15.9103L54.5154 13.1343C42.1609 21.5312 35.0831 31.7337 35.0831 40.1307C35.0831 48.25 41.1904 52.0676 46.2561 52.0676C52.7098 52.0676 57.2914 46.6533 57.2914 40.9635C57.2914 36.1754 54.1689 32.0802 49.9338 30.5522C48.7545 30.1347 47.713 29.7883 47.713 27.7762C47.713 25.2089 49.6562 21.3913 56.3187 15.9081L56.3209 15.9103Z" fill="#8CC63F"/>
</svg>
