<svg width="36" height="36" viewBox="0 0 36 36" fill="none" xmlns="http://www.w3.org/2000/svg">
<circle opacity="0.1" cx="17.7727" cy="17.7161" r="17.3999" fill="black"/>
<path d="M25.9651 11.9114C25.7469 11.4839 25.482 11.1283 25.1644 10.8305C24.5505 10.255 23.6975 9.85625 22.4866 9.60397C21.2718 9.35086 19.7306 9.25192 17.7727 9.25192C15.1878 9.25192 13.3393 9.42514 12.0129 9.8885C10.8307 10.3015 10.0695 10.942 9.57105 11.93C9.70456 12.0819 9.89989 12.2992 10.1468 12.56C10.6444 13.0859 11.3484 13.7857 12.1752 14.4839C13.0034 15.1834 13.9448 15.8727 14.9169 16.3847C15.893 16.8989 16.8678 17.2173 17.772 17.2161C18.6743 17.2148 19.6468 16.8951 20.6202 16.3804C21.5895 15.8678 22.528 15.1789 23.3536 14.4801C24.1777 13.7826 24.8793 13.0838 25.3752 12.5588C25.6228 12.2966 25.8184 12.0786 25.9515 11.9269C25.9561 11.9216 25.9606 11.9165 25.9651 11.9114ZM9.42044 13.2474C9.33075 13.1526 9.24751 13.0633 9.17116 12.9803C8.84134 14.1473 8.71094 15.6839 8.71094 17.7161C8.71094 21.422 9.14957 23.4472 10.381 24.6016C10.9949 25.1772 11.8479 25.5759 13.0588 25.8282C14.2736 26.0813 15.8148 26.1802 17.7727 26.1802C19.7306 26.1802 21.2718 26.0813 22.4866 25.8282C23.6975 25.5759 24.5505 25.1772 25.1644 24.6016C26.3958 23.4472 26.8345 21.422 26.8345 17.7161C26.8345 15.6587 26.6993 14.1194 26.3683 12.9595C26.2875 13.0477 26.1986 13.1435 26.1022 13.2455C25.5886 13.7892 24.8597 14.5155 23.9997 15.2434C23.1412 15.9701 22.142 16.7069 21.0876 17.2644C20.0371 17.8199 18.8997 18.2145 17.7734 18.2161C16.6447 18.2176 15.5042 17.8244 14.4508 17.2695C13.3935 16.7125 12.3912 15.9753 11.53 15.2479C10.6672 14.5193 9.93582 13.792 9.42044 13.2474Z" stroke="#8CC63F" stroke-linecap="round" stroke-linejoin="round"/>
</svg>
