<svg width="184" height="56" viewBox="0 0 184 56" fill="none" xmlns="http://www.w3.org/2000/svg">
<path d="M21.2617 53.6176H10.9576C6.01042 53.6176 2 49.6461 2 44.776V10.6852C2 5.78604 6.01042 1.81458 10.9576 1.81458H45.3828C50.33 1.81458 54.3404 5.78604 54.3404 10.6852V44.776C54.3404 49.6461 50.33 53.6176 45.3828 53.6176H37.1278C32.1806 53.6176 28.1702 49.6461 28.1702 44.776V38.0796" stroke="#8CC63F" stroke-width="3" stroke-linecap="round" stroke-linejoin="round"/>
<path d="M31.7414 38.0796H24.5988C19.0369 38.0796 14.5581 33.6153 14.5581 28.1365V24.6578C14.5581 22.0198 16.695 19.8746 19.3589 19.8746H36.9521C39.6159 19.8746 41.7821 22.0198 41.7821 24.6578V28.1365C41.7821 33.6153 37.2741 38.0796 31.7414 38.0796Z" stroke="#8CC63F" stroke-width="3" stroke-linecap="round" stroke-linejoin="round"/>
<path d="M21.2617 19.8747V9.20679" stroke="#8CC63F" stroke-width="3" stroke-linecap="round" stroke-linejoin="round"/>
<path d="M35.0786 19.8747V9.20679" stroke="#8CC63F" stroke-width="3" stroke-linecap="round" stroke-linejoin="round"/>
<path d="M74.14 35.2C72.8733 35.2 71.7867 34.9933 70.88 34.58C69.9867 34.1667 69.2867 33.56 68.78 32.76C68.2867 31.96 68.0133 30.9667 67.96 29.78C67.9467 29.2333 67.94 28.6467 67.94 28.02C67.94 27.3933 67.9467 26.7933 67.96 26.22C68.0133 25.06 68.2933 24.08 68.8 23.28C69.3067 22.4667 70.0133 21.8533 70.92 21.44C71.8267 21.0133 72.9 20.8 74.14 20.8C75.02 20.8 75.8333 20.9133 76.58 21.14C77.3267 21.3533 77.98 21.6733 78.54 22.1C79.1 22.5133 79.5333 23.02 79.84 23.62C80.16 24.2067 80.3267 24.8733 80.34 25.62C80.3533 25.74 80.3133 25.84 80.22 25.92C80.14 26 80.04 26.04 79.92 26.04H77.22C77.0467 26.04 76.9133 26.0067 76.82 25.94C76.7267 25.86 76.6467 25.72 76.58 25.52C76.3933 24.8133 76.0867 24.3333 75.66 24.08C75.2467 23.8133 74.7333 23.68 74.12 23.68C73.3867 23.68 72.8067 23.8867 72.38 24.3C71.9533 24.7 71.72 25.3733 71.68 26.32C71.64 27.4133 71.64 28.5333 71.68 29.68C71.72 30.6267 71.9533 31.3067 72.38 31.72C72.8067 32.12 73.3867 32.32 74.12 32.32C74.7333 32.32 75.2533 32.1867 75.68 31.92C76.1067 31.6533 76.4067 31.1733 76.58 30.48C76.6333 30.28 76.7067 30.1467 76.8 30.08C76.9067 30 77.0467 29.96 77.22 29.96H79.92C80.04 29.96 80.14 30 80.22 30.08C80.3133 30.16 80.3533 30.26 80.34 30.38C80.3267 31.1267 80.16 31.8 79.84 32.4C79.5333 32.9867 79.1 33.4933 78.54 33.92C77.98 34.3333 77.3267 34.6533 76.58 34.88C75.8333 35.0933 75.02 35.2 74.14 35.2ZM82.943 35C82.7963 35 82.6763 34.9533 82.583 34.86C82.4896 34.7667 82.443 34.6467 82.443 34.5V21.5C82.443 21.3533 82.4896 21.2333 82.583 21.14C82.6763 21.0467 82.7963 21 82.943 21H85.523C85.6696 21 85.7896 21.0467 85.883 21.14C85.9763 21.2333 86.023 21.3533 86.023 21.5V26.32H90.963V21.5C90.963 21.3533 91.0096 21.2333 91.103 21.14C91.1963 21.0467 91.3163 21 91.463 21H94.043C94.1896 21 94.3096 21.0467 94.403 21.14C94.4963 21.2333 94.543 21.3533 94.543 21.5V34.5C94.543 34.6467 94.4963 34.7667 94.403 34.86C94.3096 34.9533 94.1896 35 94.043 35H91.463C91.3163 35 91.1963 34.9533 91.103 34.86C91.0096 34.7667 90.963 34.6467 90.963 34.5V29.52H86.023V34.5C86.023 34.6467 85.9763 34.7667 85.883 34.86C85.7896 34.9533 85.6696 35 85.523 35H82.943ZM96.5453 35C96.4386 35 96.3386 34.96 96.2453 34.88C96.1653 34.7867 96.1253 34.6867 96.1253 34.58C96.1253 34.5133 96.132 34.4533 96.1453 34.4L100.845 21.56C100.885 21.4133 100.965 21.2867 101.085 21.18C101.219 21.06 101.399 21 101.625 21H104.585C104.812 21 104.985 21.06 105.105 21.18C105.239 21.2867 105.325 21.4133 105.365 21.56L110.045 34.4C110.072 34.4533 110.085 34.5133 110.085 34.58C110.085 34.6867 110.039 34.7867 109.945 34.88C109.865 34.96 109.765 35 109.645 35H107.185C106.985 35 106.832 34.9533 106.725 34.86C106.632 34.7533 106.572 34.66 106.545 34.58L105.765 32.54H100.425L99.6653 34.58C99.6386 34.66 99.5786 34.7533 99.4853 34.86C99.392 34.9533 99.232 35 99.0053 35H96.5453ZM101.245 29.66H104.965L103.085 24.38L101.245 29.66ZM112.162 35C112.015 35 111.895 34.9533 111.802 34.86C111.708 34.7667 111.662 34.6467 111.662 34.5V21.5C111.662 21.3533 111.708 21.2333 111.802 21.14C111.895 21.0467 112.015 21 112.162 21H117.602C119.322 21 120.675 21.4 121.662 22.2C122.662 22.9867 123.162 24.1067 123.162 25.56C123.162 26.5067 122.928 27.3067 122.462 27.96C122.008 28.6133 121.408 29.1067 120.662 29.44L123.422 34.36C123.462 34.44 123.482 34.5133 123.482 34.58C123.482 34.6867 123.435 34.7867 123.342 34.88C123.262 34.96 123.162 35 123.042 35H120.402C120.148 35 119.962 34.94 119.842 34.82C119.722 34.6867 119.635 34.5667 119.582 34.46L117.302 30.06H115.242V34.5C115.242 34.6467 115.195 34.7667 115.102 34.86C115.008 34.9533 114.888 35 114.742 35H112.162ZM115.242 27.24H117.562C118.188 27.24 118.655 27.0867 118.962 26.78C119.282 26.4733 119.442 26.0533 119.442 25.52C119.442 25 119.288 24.58 118.982 24.26C118.688 23.94 118.215 23.78 117.562 23.78H115.242V27.24ZM131.211 35.2C129.945 35.2 128.851 34.9933 127.931 34.58C127.025 34.1533 126.318 33.54 125.811 32.74C125.318 31.9267 125.045 30.94 124.991 29.78C124.978 29.2067 124.971 28.6 124.971 27.96C124.971 27.3067 124.978 26.6867 124.991 26.1C125.045 24.9667 125.325 24.0067 125.831 23.22C126.338 22.4333 127.051 21.8333 127.971 21.42C128.891 21.0067 129.971 20.8 131.211 20.8C132.211 20.8 133.098 20.9267 133.871 21.18C134.645 21.42 135.291 21.7467 135.811 22.16C136.345 22.5733 136.745 23.0267 137.011 23.52C137.291 24.0133 137.438 24.5 137.451 24.98C137.465 25.1 137.425 25.2 137.331 25.28C137.251 25.36 137.151 25.4 137.031 25.4H134.111C133.965 25.4 133.851 25.38 133.771 25.34C133.705 25.2867 133.645 25.2133 133.591 25.12C133.498 24.92 133.358 24.7133 133.171 24.5C132.998 24.2733 132.751 24.08 132.431 23.92C132.125 23.76 131.718 23.68 131.211 23.68C130.451 23.68 129.851 23.88 129.411 24.28C128.985 24.68 128.751 25.32 128.711 26.2C128.671 27.3467 128.671 28.5067 128.711 29.68C128.751 30.6133 128.998 31.2867 129.451 31.7C129.905 32.1133 130.505 32.32 131.251 32.32C131.758 32.32 132.205 32.2333 132.591 32.06C132.991 31.8867 133.305 31.62 133.531 31.26C133.758 30.8867 133.871 30.4133 133.871 29.84V29.46H131.991C131.845 29.46 131.718 29.4133 131.611 29.32C131.518 29.2133 131.471 29.0867 131.471 28.94V27.46C131.471 27.3133 131.518 27.1933 131.611 27.1C131.718 26.9933 131.845 26.94 131.991 26.94H137.031C137.178 26.94 137.298 26.9933 137.391 27.1C137.485 27.1933 137.531 27.3133 137.531 27.46V29.74C137.531 30.8867 137.271 31.8667 136.751 32.68C136.231 33.4933 135.491 34.12 134.531 34.56C133.585 34.9867 132.478 35.2 131.211 35.2ZM140.326 35C140.179 35 140.059 34.9533 139.966 34.86C139.872 34.7667 139.826 34.6467 139.826 34.5V21.5C139.826 21.3533 139.872 21.2333 139.966 21.14C140.059 21.0467 140.179 21 140.326 21H149.666C149.812 21 149.932 21.0467 150.026 21.14C150.119 21.2333 150.166 21.3533 150.166 21.5V23.38C150.166 23.5267 150.119 23.6467 150.026 23.74C149.932 23.8333 149.812 23.88 149.666 23.88H143.286V26.58H149.226C149.372 26.58 149.492 26.6333 149.586 26.74C149.679 26.8333 149.726 26.9533 149.726 27.1V28.84C149.726 28.9733 149.679 29.0933 149.586 29.2C149.492 29.2933 149.372 29.34 149.226 29.34H143.286V32.12H149.826C149.972 32.12 150.092 32.1667 150.186 32.26C150.279 32.3533 150.326 32.4733 150.326 32.62V34.5C150.326 34.6467 150.279 34.7667 150.186 34.86C150.092 34.9533 149.972 35 149.826 35H140.326Z" fill="black"/>
<path d="M162.717 35.2C161.517 35.2 160.464 35.0067 159.557 34.62C158.664 34.22 157.97 33.6133 157.477 32.8C156.984 31.9733 156.737 30.9267 156.737 29.66V21.5C156.737 21.3533 156.784 21.2333 156.877 21.14C156.97 21.0467 157.09 21 157.237 21H159.817C159.964 21 160.084 21.0467 160.177 21.14C160.27 21.2333 160.317 21.3533 160.317 21.5V29.64C160.317 30.5067 160.524 31.16 160.937 31.6C161.364 32.0267 161.957 32.24 162.717 32.24C163.464 32.24 164.044 32.0267 164.457 31.6C164.884 31.16 165.097 30.5067 165.097 29.64V21.5C165.097 21.3533 165.144 21.2333 165.237 21.14C165.344 21.0467 165.464 21 165.597 21H168.197C168.33 21 168.444 21.0467 168.537 21.14C168.644 21.2333 168.697 21.3533 168.697 21.5V29.66C168.697 30.9267 168.45 31.9733 167.957 32.8C167.464 33.6133 166.77 34.22 165.877 34.62C164.984 35.0067 163.93 35.2 162.717 35.2ZM171.849 35C171.703 35 171.583 34.9533 171.489 34.86C171.396 34.7667 171.349 34.6467 171.349 34.5V21.5C171.349 21.3533 171.396 21.2333 171.489 21.14C171.583 21.0467 171.703 21 171.849 21H177.449C178.556 21 179.516 21.1733 180.329 21.52C181.156 21.8533 181.796 22.36 182.249 23.04C182.716 23.72 182.949 24.58 182.949 25.62C182.949 26.6467 182.716 27.4933 182.249 28.16C181.796 28.8267 181.156 29.32 180.329 29.64C179.516 29.96 178.556 30.12 177.449 30.12H175.069V34.5C175.069 34.6467 175.016 34.7667 174.909 34.86C174.816 34.9533 174.696 35 174.549 35H171.849ZM175.009 27.36H177.349C177.923 27.36 178.376 27.2133 178.709 26.92C179.056 26.6267 179.229 26.18 179.229 25.58C179.229 25.0733 179.083 24.6467 178.789 24.3C178.496 23.9533 178.016 23.78 177.349 23.78H175.009V27.36Z" fill="#8CC63F"/>
</svg>
