<svg width="65" height="45" viewBox="0 0 65 45" fill="none" xmlns="http://www.w3.org/2000/svg">
<path d="M55.047 32.7022C59.1613 27.5213 64.4946 20.3594 64.4946 8.01651C64.4946 7.10222 63.8851 6.4927 62.9708 6.4927C62.0565 6.4927 61.447 7.10222 61.447 8.01651C61.447 18.226 57.6375 24.3213 53.828 29.1975C52.9137 26.3022 52.3042 22.7975 52.3042 18.6832C52.3042 17.9213 51.6946 17.1594 50.7803 17.1594C50.0184 17.1594 49.2565 17.7689 49.2565 18.6832C49.1042 21.2737 48.3422 24.1689 47.7327 24.4737C47.1232 24.4737 46.3613 22.3403 46.2089 20.207C46.2089 19.4451 45.447 18.8356 44.6851 18.8356C43.9232 18.8356 43.1613 19.2927 43.1613 20.207C42.7042 22.7975 41.4851 26.4546 40.1137 26.4546C39.5042 26.4546 39.1994 26.3022 39.047 25.9975C38.5899 25.5403 38.4375 24.4737 38.4375 23.5594C38.4375 22.9498 38.5899 22.3403 38.5899 21.7308C38.5899 20.9689 37.9803 20.207 37.2184 20.207C36.4565 20.207 35.6946 20.6641 35.5423 21.426C35.5423 21.5784 35.3899 22.1879 35.3899 23.1022C35.0851 25.6927 34.1708 30.8737 30.9708 30.8737C29.9042 30.8737 29.2946 30.5689 28.8375 29.807C28.0756 28.5879 28.0756 26.607 28.8375 24.7784V24.626C28.9899 24.4737 28.9899 24.1689 29.1423 24.0165C30.3613 21.5784 31.7327 20.207 34.0184 20.207C34.9327 20.207 35.5423 19.5975 35.5423 18.6832C35.5423 17.7689 34.9327 17.1594 34.0184 17.1594C27.6184 17.1594 25.7899 23.407 23.9613 29.3498C21.828 36.6641 19.847 41.5403 14.2089 41.5403C6.43749 41.5403 3.54225 31.4832 3.54225 24.7784C3.54225 11.6737 10.7042 3.44508 17.2565 3.44508C21.6756 3.44508 23.3518 6.94984 23.5042 7.10222C23.8089 7.86413 24.7232 8.16889 25.4851 7.86413C26.247 7.55937 26.5518 6.64508 26.247 5.88318C26.0946 5.57841 23.6565 0.397461 17.2565 0.397461C9.02796 0.397461 0.494629 9.54032 0.494629 24.7784C0.494629 40.4737 9.48511 44.5879 14.2089 44.5879C21.9803 44.5879 24.5708 37.7308 26.5518 31.6356C27.6184 33.007 29.1422 33.9213 30.9708 33.9213C34.3232 33.9213 36.3042 31.4832 37.3708 28.4356C38.1327 29.0451 39.047 29.3498 40.1137 29.3498C42.247 29.3498 43.7708 27.5213 44.6851 25.6927C45.2946 26.7594 46.3613 27.5213 47.7327 27.5213C48.647 27.5213 49.4089 27.0641 50.0184 26.4546C50.4756 28.5879 51.0851 30.5689 51.5423 32.2451C49.4089 34.9879 47.7327 37.2737 47.7327 40.0165C47.7327 42.607 49.7137 44.5879 52.3042 44.5879C55.047 44.5879 56.8756 42.1498 56.8756 40.0165C56.8756 38.0356 56.1137 35.9022 55.1994 33.4641C55.1994 33.1594 55.047 33.007 55.047 32.7022ZM52.3042 41.5403C51.2375 41.5403 50.7803 40.7784 50.7803 40.0165C50.7803 38.6451 51.5423 37.2737 52.7613 35.5975C53.3708 37.426 53.828 38.7975 53.828 40.0165C53.828 40.4737 53.3708 41.5403 52.3042 41.5403Z" fill="#333333"/>
</svg>
