<svg width="41" height="51" viewBox="0 0 41 51" fill="none" xmlns="http://www.w3.org/2000/svg">
<path d="M35.8276 31.8332C32.3714 30.1641 28.824 28.7141 25.2043 27.4903C28.4 24.439 30.1204 18.7522 30.5499 14.507C31.1038 13.0638 31.2682 11.0734 30.9963 10.515V10.5154C32.1957 9.68729 32.956 8.31282 33.0488 6.80463C33.0488 3.01008 27.4091 0.0379639 20.2088 0.0379639C13.0085 0.0379639 7.36878 3.01008 7.36878 6.80463C7.46156 8.31282 8.22179 9.68723 9.42125 10.5154C9.04938 10.9077 9.48359 13.9199 9.86728 14.5074C10.2972 18.7528 12.0175 24.4399 15.2132 27.4907C11.5933 28.7141 8.04593 30.1645 4.58995 31.8336C0.146485 34.2782 0.146484 44.8575 0.146484 49.9421C0.146484 50.1664 0.231034 50.3817 0.381502 50.5403C0.531971 50.6988 0.73618 50.788 0.948984 50.788H39.469C39.6818 50.788 39.886 50.6988 40.0365 50.5403C40.1869 50.3817 40.2715 50.1664 40.2715 49.9421C40.2715 44.858 40.2715 34.2783 35.828 31.8336L35.8276 31.8332ZM20.2087 1.72925C26.8296 1.72925 31.4437 4.40383 31.4437 6.80425C31.4437 9.20468 26.8296 11.8793 20.2087 11.8793C13.5877 11.8793 8.97366 9.20468 8.97366 6.80425C8.97366 4.40383 13.5877 1.72925 20.2087 1.72925ZM20.2087 13.5709C23.4179 13.6551 26.6018 12.9486 29.5067 11.5073C29.5278 12.9233 29.0169 14.2906 28.0851 15.3113C27.1536 16.3316 25.8768 16.9222 24.5336 16.9543H15.8845C14.5414 16.9222 13.2646 16.3316 12.3331 15.3113C11.4013 14.2906 10.8904 12.9233 10.9115 11.5073C13.8159 12.9486 16.9998 13.6551 20.2095 13.5709H20.2087ZM11.9311 17.1959C13.0578 18.1324 14.4496 18.6429 15.8842 18.6459H24.5333C25.9674 18.6429 27.3592 18.1324 28.4856 17.1963C27.3897 22.172 24.6716 27.9505 20.2088 27.9505C15.7456 27.9505 13.0274 22.172 11.9312 17.1963L11.9311 17.1959ZM20.2087 29.6418C21.3955 29.6429 22.5632 29.3227 23.5993 28.7117C24.2226 28.9288 25.4719 29.3695 26.9662 29.9216L23.1873 38.2032L22.2633 36.2446L22.2626 36.2449C22.4804 36.0931 22.613 35.8379 22.6162 35.5626V32.1793C22.6162 31.955 22.5317 31.7397 22.3812 31.5811C22.2307 31.4226 22.0265 31.3334 21.8137 31.3334H18.6037C18.3909 31.3334 18.1867 31.4226 18.0362 31.5811C17.8858 31.7397 17.8012 31.955 17.8012 32.1793V35.5626C17.8045 35.8379 17.937 36.0931 18.1548 36.2449L17.1374 38.4015L13.1284 30.041C14.7861 29.4251 16.1858 28.9331 16.8199 28.7126H16.8196C17.8549 29.3232 19.0222 29.643 20.2087 29.6419L20.2087 29.6418ZM21.0112 34.7168H19.4062V33.0251H21.0112V34.7168ZM19.8704 36.4084H20.5472L22.3055 40.135L20.1907 44.7693L18.0418 40.2883L19.8704 36.4084ZM1.75226 49.0959C1.76588 44.613 1.98083 35.1779 5.33307 33.3335C7.37371 32.3041 9.4681 31.3971 11.6059 30.6162L19.4929 47.0631V47.0635C19.6294 47.3482 19.9064 47.5276 20.2091 47.5276H20.217C20.5226 47.5242 20.7999 47.3384 20.9324 47.0484L28.4874 30.4923C30.7358 31.3072 32.9384 32.2557 35.0851 33.3334C38.4374 35.178 38.6523 44.6135 38.6659 49.0959L1.75226 49.0959Z" fill="#8CC63F"/>
<path d="M33.0485 36.4084H29.036C28.5929 36.4084 28.2335 36.7872 28.2335 37.2543C28.2335 37.7214 28.5929 38.1001 29.036 38.1001H33.0485C33.4917 38.1001 33.851 37.7214 33.851 37.2543C33.851 36.7872 33.4917 36.4084 33.0485 36.4084Z" fill="#8CC63F"/>
</svg>
