<svg width="51" height="51" viewBox="0 0 51 51" fill="none" xmlns="http://www.w3.org/2000/svg">
<path d="M48.9891 25.593C47.1581 23.3534 43.9105 23.5887 40.7704 23.8134C38.3818 23.9822 35.9117 24.1611 34.2187 23.2406C32.8329 22.4887 32.1625 21.3535 31.8711 20.198C31.9681 20.2288 32.0655 20.2645 32.1677 20.295C38.0648 22.1309 46.0638 21.287 49.27 16.0968C51.2491 12.9008 51.2852 9.61799 49.3723 7.31173C47.2702 4.77545 43.3578 4.04432 39.6444 5.48103C34.6169 7.42414 30.5764 12.7782 30.2437 17.9226V17.9535C27.6608 16.6189 26.234 14.7116 26.3416 12.5738V11.5359C26.3416 10.0838 25.1602 8.90225 23.7075 8.90225H23.0375V6.85695C23.0375 3.20084 20.061 0.219482 16.399 0.219482H6.78405C3.12206 0.229637 0.145508 3.20568 0.145508 6.86708V48.3899C0.145508 48.7887 0.467721 49.1162 0.871881 49.1162C1.27604 49.1162 1.59825 48.794 1.59825 48.3899L1.5979 6.86708C1.5979 4.00342 3.91986 1.68175 6.78408 1.68175H16.399C19.2579 1.68175 21.5852 4.00826 21.5852 6.86708V24.2785C21.5852 24.6774 21.9074 25.0048 22.3115 25.0048C22.7157 25.0048 23.0379 24.6826 23.0379 24.2785L23.0376 10.3596H23.7075C24.3621 10.3596 24.8889 10.8915 24.8889 11.5407V12.5429C24.7456 15.4476 26.73 17.9941 30.2796 19.5845C30.5405 21.7832 31.6605 23.5015 33.522 24.5142C35.5883 25.6393 38.2731 25.445 40.8715 25.2555C43.7714 25.0457 46.5076 24.8514 47.863 26.5084C48.0266 26.708 49.2696 28.3493 47.8578 30.2209C46.6148 28.8864 44.5793 28.5079 42.9122 29.4281L39.9921 31.0491C39.639 31.2434 39.5165 31.6832 39.7108 32.0359L40.1507 32.8287L38.9949 33.473C38.6419 33.6673 38.5193 34.1071 38.7137 34.4598C38.8468 34.7 39.0923 34.833 39.348 34.833C39.4656 34.833 39.5882 34.8022 39.701 34.741L40.8568 34.0966L41.8079 35.8149L40.6522 36.4592C40.2991 36.6536 40.1766 37.0934 40.3709 37.446C40.504 37.6863 40.7495 37.8193 41.0052 37.8193C41.1229 37.8193 41.2455 37.7885 41.3582 37.7272L42.514 37.0829L42.9539 37.8757C43.087 38.1159 43.3325 38.249 43.5881 38.249C43.7058 38.249 43.8284 38.2182 43.9412 38.1569L46.8613 36.536C47.8125 36.0093 48.4979 35.1451 48.7998 34.102C49.0506 33.2325 48.9995 32.3326 48.6772 31.5093C49.7563 30.2666 50.8662 27.8735 48.9942 25.5876L48.9891 25.593ZM31.6923 18.02C31.948 14.0364 35.1908 8.76428 40.1671 6.83694C43.297 5.62497 46.5499 6.18738 48.2531 8.24327C49.772 10.0687 49.6904 12.6564 48.0332 15.3359C45.307 19.7386 38.0444 20.6081 32.5932 18.9105C32.2762 18.8135 31.9691 18.706 31.6724 18.5936C31.6724 18.3992 31.6777 18.2049 31.6878 18.0207L31.6923 18.02ZM47.3986 33.7085C47.2042 34.3783 46.7643 34.9358 46.1507 35.2734L43.8645 36.5416L41.3278 31.9702L43.614 30.7019C44.872 30.0012 46.468 30.4617 47.1685 31.7195C47.5061 32.3281 47.5878 33.0337 47.3937 33.7088L47.3986 33.7085Z" fill="#8CC63F"/>
<path d="M5.64904 25.7256C5.77688 25.8177 5.92537 25.8587 6.06827 25.8587C6.25739 25.8587 6.45176 25.782 6.5901 25.6388L16.9061 14.9362C17.0851 14.7471 17.1517 14.4761 17.0802 14.2254C17.0035 13.9747 16.8039 13.7856 16.5482 13.7243L14.6507 13.2897L17.3919 6.71358C17.5299 6.38617 17.4073 6.01289 17.1107 5.8238C16.814 5.6347 16.4204 5.68583 16.185 5.94636L7.85877 15.1097C7.69522 15.2886 7.63358 15.5394 7.69522 15.7743C7.75651 16.0096 7.93057 16.1987 8.16067 16.2807L9.5518 16.7664L5.4296 24.8049C5.26604 25.127 5.35815 25.5157 5.65479 25.7255L5.64904 25.7256ZM11.224 16.6895C11.321 16.5053 11.3315 16.2854 11.2495 16.0911C11.1728 15.8967 11.0142 15.7434 10.8149 15.6768L9.66935 15.278L14.4359 10.0314L12.9783 13.5293C12.8963 13.7289 12.9068 13.9485 13.0038 14.1428C13.1008 14.3372 13.2802 14.4702 13.4896 14.5161L14.9728 14.8537L8.9633 21.087L11.224 16.6844L11.224 16.6895Z" fill="#8CC63F"/>
<path d="M34.2599 35.0684H33.4824C32.8839 35.0684 32.3981 34.5827 32.3981 33.9842V33.023C32.3981 29.5714 29.5952 26.7588 26.143 26.7588H16.2466C12.7944 26.7588 9.98137 29.5661 9.98137 33.023V33.9842C9.98137 34.5928 9.51102 35.0684 8.90727 35.0684H8.12486C5.50129 35.0684 3.36322 37.2058 3.36322 39.8292V46.6967C3.36322 47.0956 3.68543 47.423 4.08959 47.423H7.78727C8.31926 49.1616 9.94049 50.4348 11.8534 50.4348C13.7664 50.4348 15.3876 49.1666 15.9196 47.423H25.9846C26.5166 49.1616 28.1378 50.4348 30.0508 50.4348C31.9637 50.4348 33.5849 49.1666 34.1169 47.423H38.2902C38.6891 47.423 39.0166 47.1008 39.0166 46.6967V39.8292C39.0166 37.2061 36.8837 35.0684 34.2655 35.0684H34.2599ZM11.8535 48.9819C10.309 48.9819 9.05592 47.7241 9.05592 46.1848C9.05592 44.6454 10.3139 43.3876 11.8535 43.3876C13.3931 43.3876 14.6511 44.6454 14.6511 46.1848C14.6511 47.7241 13.3931 48.9819 11.8535 48.9819ZM30.0505 48.9819C28.5059 48.9819 27.2529 47.7241 27.2529 46.1848C27.2529 44.6454 28.5109 43.3876 30.0505 43.3876C31.5901 43.3876 32.8481 44.6454 32.8481 46.1848C32.8481 47.7241 31.5901 48.9819 30.0505 48.9819ZM37.5636 45.9701H34.2903C34.1779 43.7251 32.3213 41.9302 30.0505 41.9302C27.7796 41.9302 25.9231 43.7251 25.8107 45.9701H16.0935C15.9811 43.7251 14.1245 41.9302 11.8537 41.9302C9.58284 41.9302 7.72629 43.7251 7.61386 45.9701H4.81626V39.8288C4.81626 38.0034 6.29947 36.5204 8.12518 36.5204H8.90759C10.2987 36.5204 11.4341 35.3852 11.4341 33.9841V33.0229C11.4341 30.369 13.5926 28.2108 16.247 28.2108H26.1434C28.7925 28.2108 30.9457 30.3689 30.9457 33.0229V33.9841C30.9457 35.3852 32.0811 36.5204 33.4824 36.5204H34.2599C36.0807 36.5204 37.5587 38.0034 37.5587 39.8288V45.9701H37.5636Z" fill="#8CC63F"/>
<path d="M25.4725 29.4845H16.8804C14.758 29.4845 13.0293 31.2129 13.0293 33.335V35.8152C13.0293 36.214 13.3515 36.5415 13.7557 36.5415H28.603C29.0019 36.5415 29.3294 36.2193 29.3294 35.8152V33.335C29.3294 31.2129 27.6007 29.4845 25.4783 29.4845H25.4725ZM14.4768 33.335C14.4768 32.0106 15.5559 30.9366 16.8755 30.9366H20.2461V35.0889H14.4772V33.335H14.4768ZM27.8717 35.0889H21.6986V30.9366H25.473C26.7975 30.9366 27.8717 32.0106 27.8717 33.335V35.0889Z" fill="#8CC63F"/>
</svg>
