<svg width="82" height="77" viewBox="0 0 82 77" fill="none" xmlns="http://www.w3.org/2000/svg">
<path d="M12.1246 48.3289C11.3474 48.3289 10.7168 48.9588 10.7168 49.7366V50.6756C10.7168 51.4529 11.3474 52.0834 12.1246 52.0834C12.9025 52.0834 13.533 51.4529 13.533 50.6756V49.7366C13.533 48.9588 12.9025 48.3289 12.1246 48.3289Z" fill="white"/>
<path d="M12.1246 37.0644C11.3474 37.0644 10.7168 37.6943 10.7168 38.4722V39.4112C10.7168 40.1884 11.3474 40.819 12.1246 40.819C12.9025 40.819 13.533 40.1884 13.533 39.4112V38.4722C13.533 37.6943 12.9025 37.0644 12.1246 37.0644Z" fill="white"/>
<path d="M12.1246 42.6966C11.3474 42.6966 10.7168 43.3272 10.7168 44.1051V45.044V45.0434C10.7168 45.8213 11.3474 46.4518 12.1246 46.4518C12.9025 46.4518 13.533 45.8213 13.533 45.0434V44.1044V44.1051C13.533 43.3272 12.9025 42.6966 12.1246 42.6966Z" fill="white"/>
<path d="M66.1659 56.0732H70.3617C70.4711 56.0863 70.5811 56.0863 70.6905 56.0732C73.6548 55.8636 76.4283 54.5364 78.4517 52.3606C80.475 50.1841 81.596 47.3201 81.5888 44.3486V43.128V43.1287C81.5843 40.7373 80.8496 38.405 79.4824 36.4433C78.1146 34.4822 76.1804 32.986 73.9384 32.155C73.7334 23.6147 70.1976 15.4927 64.0845 9.52384C57.972 3.55601 49.7675 0.214722 41.2236 0.214722C32.6797 0.214722 24.4761 3.55618 18.3628 9.52384C12.2496 15.4922 8.71386 23.6143 8.50886 32.155C6.2635 32.9866 4.32742 34.4861 2.95959 36.4511C1.5924 38.4162 0.859069 40.7531 0.858398 43.147V44.3675C0.863637 47.4731 2.09922 50.4498 4.2954 52.646C6.49097 54.8416 9.46818 56.0778 12.574 56.0824H14.8644V61.3108C14.8664 64.1735 16.0044 66.9177 18.0283 68.9416C20.0523 70.9656 22.7971 72.1036 25.6592 72.1063H35.8909C36.3512 73.8499 37.6339 75.2591 39.3266 75.8799C41.02 76.5012 42.9096 76.2557 44.3881 75.2238C45.8666 74.1911 46.7472 72.5012 46.7472 70.6978C46.7472 68.8945 45.8665 67.2052 44.3881 66.1726C42.9095 65.14 41.0198 64.8951 39.3266 65.5165C37.6339 66.1372 36.3512 67.5463 35.8909 69.2901H25.6684C23.5535 69.2875 21.5249 68.4461 20.0293 66.9505C18.5331 65.4544 17.6918 63.4265 17.6897 61.3108V32.8395C17.6897 24.4307 22.1758 16.6597 29.4583 12.4544C36.7415 8.24938 45.7142 8.24938 52.9963 12.4544C60.2789 16.6588 64.7655 24.4298 64.7655 32.8395V54.6644C64.7655 55.4384 65.3902 56.0669 66.1642 56.0722L66.1659 56.0732ZM41.2248 68.0041C41.9424 68.0015 42.6313 68.2844 43.1401 68.7905C43.6489 69.296 43.9363 69.9836 43.9376 70.7011C43.9396 71.4188 43.6554 72.1076 43.1493 72.6158C42.6425 73.1239 41.9549 73.41 41.2373 73.4107C40.5197 73.412 39.8315 73.1272 39.324 72.6204C38.8159 72.1129 38.5311 71.4254 38.5311 70.7077C38.5311 69.9921 38.8146 69.3058 39.3195 68.799C39.8243 68.2922 40.5092 68.0067 41.2248 68.0041ZM78.7731 43.1284V44.3489V44.3483C78.7698 46.4062 78.0554 48.4001 76.7498 49.9912C75.4442 51.5824 73.6284 52.6733 71.6111 53.0786C71.359 52.5757 70.8299 52.2725 70.2687 52.3092C69.7076 52.3465 69.2231 52.7158 69.0391 53.2475H67.5743V34.2287H69.8647C72.2259 34.2287 74.4902 35.1657 76.1606 36.8347C77.831 38.5031 78.7705 40.7668 78.7732 43.1279L78.7731 43.1284ZM14.8756 53.2659H12.576C10.2161 53.264 7.95453 52.3256 6.28615 50.6573C4.61777 48.989 3.6794 46.7267 3.67688 44.3675V43.147C3.68016 41.089 4.39452 39.0951 5.70013 37.504C7.00579 35.9129 8.8215 34.822 10.8389 34.4173C11.091 34.9202 11.62 35.2227 12.1812 35.1861C12.7423 35.1494 13.2269 34.7794 13.4109 34.2484H14.875L14.8756 53.2659ZM41.2248 6.48147C34.4864 6.49784 28.0092 9.09141 23.1212 13.7306C18.2345 18.3705 15.307 24.7036 14.9402 31.432H12.0775C11.9681 31.4189 11.8581 31.4189 11.7488 31.432H11.3356C11.6702 23.7315 14.9644 16.4582 20.5307 11.1291C26.0978 5.7984 33.5074 2.82303 41.2141 2.82303C48.9211 2.82303 56.3307 5.7984 61.8975 11.1291C67.4646 16.4591 70.7581 23.7326 71.0927 31.432C70.6841 31.3887 70.2735 31.3665 69.863 31.3665H67.507C67.1239 24.649 64.1898 18.3322 59.3044 13.7071C54.4189 9.08159 47.951 6.49646 41.2225 6.48154L41.2248 6.48147Z" fill="white"/>
<path d="M68.9551 36.8297V37.7687C68.9551 38.5459 69.585 39.1765 70.3629 39.1765C71.1408 39.1765 71.7707 38.5459 71.7707 37.7687V36.8297C71.7707 36.0518 71.1408 35.4219 70.3629 35.4219C69.585 35.4219 68.9551 36.0518 68.9551 36.8297Z" fill="white"/>
<path d="M70.3245 41.0539C69.5466 41.0539 68.916 41.6845 68.916 42.4623V43.4013V43.4007C68.916 44.1785 69.5466 44.8091 70.3245 44.8091C71.1017 44.8091 71.7323 44.1785 71.7323 43.4007V42.4617V42.4623C71.7323 41.6845 71.1017 41.0539 70.3245 41.0539Z" fill="white"/>
<path d="M70.3245 46.6861C69.5466 46.6861 68.916 47.3167 68.916 48.0939V49.0329C68.916 49.8108 69.5466 50.4407 70.3245 50.4407C71.1017 50.4407 71.7323 49.8108 71.7323 49.0329V48.0939C71.7323 47.3167 71.1017 46.6861 70.3245 46.6861Z" fill="white"/>
</svg>
