<svg width="41" height="41" viewBox="0 0 41 41" fill="none" xmlns="http://www.w3.org/2000/svg">
<path d="M33.2344 10.6665H25.7344C25.6018 10.6665 25.4746 10.6138 25.3808 10.5201C25.2871 10.4263 25.2344 10.2991 25.2344 10.1665V2.6665C25.2344 2.5339 25.2871 2.40672 25.3808 2.31295C25.4746 2.21918 25.6018 2.1665 25.7344 2.1665C25.867 2.1665 25.9942 2.21918 26.0879 2.31295C26.1817 2.40672 26.2344 2.5339 26.2344 2.6665V9.6665H33.2344C33.367 9.6665 33.4942 9.71918 33.5879 9.81295C33.6817 9.90672 33.7344 10.0339 33.7344 10.1665C33.7344 10.2991 33.6817 10.4263 33.5879 10.5201C33.4942 10.6138 33.367 10.6665 33.2344 10.6665Z" fill="#FF402F"/>
<path d="M33.2344 15.6495C33.1018 15.6495 32.9746 15.5968 32.8808 15.5031C32.7871 15.4093 32.7344 15.2821 32.7344 15.1495V10.3735L25.5274 3.1665H10.7344C10.2039 3.1665 9.69523 3.37722 9.32016 3.75229C8.94509 4.12736 8.73438 4.63607 8.73438 5.1665V14.9835C8.73438 15.1161 8.6817 15.2433 8.58793 15.3371C8.49416 15.4308 8.36698 15.4835 8.23438 15.4835C8.10177 15.4835 7.97459 15.4308 7.88082 15.3371C7.78705 15.2433 7.73438 15.1161 7.73438 14.9835V5.1665C7.73438 4.37086 8.05045 3.60779 8.61305 3.04518C9.17566 2.48258 9.93873 2.1665 10.7344 2.1665H25.7344C25.8001 2.16639 25.8652 2.17922 25.9259 2.20427C25.9866 2.22932 26.0419 2.2661 26.0884 2.3125L33.5884 9.8125C33.6348 9.85902 33.6716 9.91423 33.6966 9.97497C33.7217 10.0357 33.7345 10.1008 33.7344 10.1665V15.1495C33.7344 15.2152 33.7214 15.2802 33.6963 15.3408C33.6712 15.4015 33.6344 15.4566 33.5879 15.5031C33.5415 15.5495 33.4864 15.5863 33.4257 15.6114C33.3651 15.6366 33.3 15.6495 33.2344 15.6495Z" fill="#FF402F"/>
<path d="M30.7344 38.1665H10.7344C9.93873 38.1665 9.17566 37.8504 8.61305 37.2878C8.05045 36.7252 7.73438 35.9622 7.73438 35.1665V27.6665C7.73438 27.5339 7.78705 27.4067 7.88082 27.313C7.97459 27.2192 8.10177 27.1665 8.23438 27.1665C8.36698 27.1665 8.49416 27.2192 8.58793 27.313C8.6817 27.4067 8.73438 27.5339 8.73438 27.6665V35.1665C8.73438 35.6969 8.94509 36.2056 9.32016 36.5807C9.69523 36.9558 10.2039 37.1665 10.7344 37.1665H30.7344C31.2648 37.1665 31.7735 36.9558 32.1486 36.5807C32.5237 36.2056 32.7344 35.6969 32.7344 35.1665V27.6665C32.7344 27.5339 32.7871 27.4067 32.8808 27.313C32.9746 27.2192 33.1018 27.1665 33.2344 27.1665C33.367 27.1665 33.4942 27.2192 33.5879 27.313C33.6817 27.4067 33.7344 27.5339 33.7344 27.6665V35.1665C33.7344 35.9622 33.4183 36.7252 32.8557 37.2878C32.2931 37.8504 31.53 38.1665 30.7344 38.1665Z" fill="#FF402F"/>
<path d="M28.2344 28.1673H13.2344C13.1018 28.1673 12.9746 28.1146 12.8808 28.0208C12.7871 27.9269 12.7344 27.7996 12.7344 27.6669C12.7344 27.5342 12.7871 27.4069 12.8808 27.3131C12.9746 27.2192 13.1018 27.1665 13.2344 27.1665H28.2344C28.367 27.1665 28.4942 27.2192 28.5879 27.3131C28.6817 27.4069 28.7344 27.5342 28.7344 27.6669C28.7344 27.7996 28.6817 27.9269 28.5879 28.0208C28.4942 28.1146 28.367 28.1673 28.2344 28.1673Z" fill="#FF402F"/>
<path d="M20.7344 33.1673H13.2344C13.1018 33.1673 12.9746 33.1146 12.8808 33.0208C12.7871 32.9269 12.7344 32.7996 12.7344 32.6669C12.7344 32.5342 12.7871 32.4069 12.8808 32.3131C12.9746 32.2192 13.1018 32.1665 13.2344 32.1665H20.7344C20.867 32.1665 20.9942 32.2192 21.0879 32.3131C21.1817 32.4069 21.2344 32.5342 21.2344 32.6669C21.2344 32.7996 21.1817 32.9269 21.0879 33.0208C20.9942 33.1146 20.867 33.1673 20.7344 33.1673Z" fill="#FF402F"/>
<path d="M33.2344 28.1665H8.23438C7.43873 28.1665 6.67566 27.8504 6.11305 27.2878C5.55045 26.7252 5.23438 25.9622 5.23438 25.1665V17.4835C5.23438 16.6879 5.55045 15.9248 6.11305 15.3622C6.67566 14.7996 7.43873 14.4835 8.23438 14.4835H8.25437L33.2544 14.6495C34.046 14.6569 34.8028 14.9759 35.3608 15.5375C35.9188 16.099 36.233 16.8579 36.2354 17.6495V25.1665C36.2354 25.5606 36.1577 25.9508 36.0069 26.3148C35.8561 26.6788 35.635 27.0096 35.3563 27.2882C35.0777 27.5668 34.7468 27.7877 34.3827 27.9384C34.0186 28.0892 33.6284 28.1667 33.2344 28.1665ZM8.23438 15.4835C7.70394 15.4835 7.19523 15.6942 6.82016 16.0693C6.44509 16.4444 6.23438 16.9531 6.23438 17.4835V25.1665C6.23438 25.697 6.44509 26.2057 6.82016 26.5807C7.19523 26.9558 7.70394 27.1665 8.23438 27.1665H33.2344C33.7648 27.1665 34.2735 26.9558 34.6486 26.5807C35.0237 26.2057 35.2344 25.697 35.2344 25.1665V17.6495C35.2328 17.1216 35.0232 16.6156 34.6511 16.2413C34.279 15.8669 33.7742 15.6543 33.2464 15.6495L8.24638 15.4835H8.23438Z" fill="#FF402F"/>
<path d="M15.2344 23.7665H14.2734V18.4345H16.4574C17.0801 18.4345 17.5418 18.5915 17.8424 18.9055C18.1385 19.2165 18.3005 19.6313 18.2935 20.0606C18.2866 20.4899 18.1113 20.8992 17.8054 21.2005C17.4677 21.5072 17.0234 21.6698 16.5674 21.6535H15.2344V23.7665ZM15.2344 20.8295H16.3714C16.6681 20.8295 16.8948 20.7565 17.0514 20.6105C17.1297 20.5358 17.1911 20.4452 17.2315 20.3449C17.2718 20.2445 17.2902 20.1366 17.2854 20.0285C17.2891 19.8201 17.2112 19.6184 17.0684 19.4665C16.9238 19.3105 16.6628 19.2325 16.2854 19.2325H15.2344V20.8295Z" fill="#FF402F"/>
<path d="M19.0342 23.7665V18.4345H21.0042C21.7308 18.4345 22.3142 18.6915 22.7542 19.2055C23.1942 19.7195 23.4142 20.3528 23.4142 21.1055C23.4142 21.8608 23.1875 22.4925 22.7342 23.0005C22.2808 23.5085 21.6325 23.7638 20.7892 23.7665H19.0342ZM20.0222 22.9815H20.8222C21.0286 22.9842 21.2332 22.9424 21.422 22.8589C21.6108 22.7753 21.7793 22.6521 21.9162 22.4975C22.2155 22.1748 22.3652 21.6945 22.3652 21.0565C22.3799 20.585 22.2421 20.1214 21.9722 19.7345C21.8583 19.5648 21.7038 19.4264 21.5226 19.3319C21.3414 19.2374 21.1395 19.1898 20.9352 19.1935H20.0212L20.0222 22.9815Z" fill="#FF402F"/>
<path d="M25.2937 23.7665H24.3047V18.4345H27.6757V19.2585H25.2937V20.7155H27.1687V21.5155H25.2937V23.7665Z" fill="#FF402F"/>
</svg>
