<svg width="40" height="52" viewBox="0 0 40 52" fill="none" xmlns="http://www.w3.org/2000/svg">
<path d="M11.9951 12.8038L12.5923 11.0023L12.5924 11.0021C12.692 10.7007 12.5304 10.3742 12.2291 10.273L12.2289 10.2729C11.9272 10.1722 11.6024 10.3363 11.5022 10.6381L11.5021 10.6381L10.6535 13.1984L10.6534 13.1987C10.5957 13.3738 10.6247 13.567 10.7322 13.7173L10.7324 13.7176C10.8404 13.8678 11.0136 13.9572 11.1986 13.9572H12.0994L11.5024 15.7578C11.4526 15.903 11.4629 16.0621 11.5315 16.1996C11.5315 16.1997 11.5315 16.1997 11.5315 16.1997L11.6658 16.1328L11.9951 12.8038Z" fill="#8CC63F" stroke="#8CC63F" stroke-width="0.3"/>
<path d="M12.0475 19.0778H12.0474C10.545 19.0762 9.10468 18.4749 8.04241 17.4071L8.04237 17.407C6.98049 16.3388 6.38296 14.8908 6.3814 13.3807L6.3814 13.3805C6.3814 11.8696 6.97813 10.4207 8.04082 9.35242L12.0475 19.0778ZM12.0475 19.0778C13.5507 19.0778 14.9919 18.4773 16.0542 17.4086M12.0475 19.0778L16.0542 17.4086M16.0542 17.4086C17.1169 16.3403 17.7136 14.8914 17.7136 13.3805M16.0542 17.4086L17.7136 13.3805M17.7136 13.3805C17.7136 11.8696 17.1169 10.4207 16.0542 9.35242M17.7136 13.3805L16.0542 9.35242M16.0542 9.35242C14.9919 8.28369 13.5507 7.68325 12.0475 7.68325M16.0542 9.35242L12.0475 7.68325M12.0475 7.68325C10.5443 7.68325 9.10319 8.28369 8.04086 9.35238L12.0475 7.68325ZM12.0476 8.83668C13.2452 8.8367 14.3943 9.3152 15.2417 10.1671L15.2417 10.1671C16.0888 11.0194 16.565 12.1754 16.565 13.3805C16.565 14.5856 16.0889 15.7417 15.2417 16.5939C14.3942 17.4458 13.2451 17.9243 12.0475 17.9243C10.8499 17.9243 9.70075 17.4458 8.85331 16.5939C8.00622 15.7416 7.53006 14.5857 7.53004 13.3806C7.53153 12.1757 8.00807 11.0205 8.85482 10.1685C9.70192 9.31704 10.8503 8.83812 12.0476 8.83668Z" fill="#8CC63F" stroke="#8CC63F" stroke-width="0.3"/>
<mask id="path-3-outside-1_1_265" maskUnits="userSpaceOnUse" x="-0.40918" y="0.00585938" width="41" height="52" fill="black">
<rect fill="white" x="-0.40918" y="0.00585938" width="41" height="52"/>
<path d="M37.5065 13.8073H29.3566C28.5913 13.8073 27.8271 13.7436 27.0721 13.6172L23.504 13.019V3.99289C23.5033 3.20081 23.19 2.4419 22.6331 1.88177C22.0761 1.3217 21.3215 1.00662 20.5338 1.00586H3.56109C2.77345 1.00662 2.01881 1.3217 1.46181 1.88177C0.904894 2.44183 0.591577 3.20072 0.59082 3.99289V30.449C0.591578 31.2411 0.904894 32 1.46181 32.5602C2.01873 33.1202 2.77336 33.4353 3.56109 33.4361H5.68267V48.7977C5.68267 49.4077 6.00621 49.9711 6.53131 50.2759C7.0564 50.5807 7.70349 50.5807 8.22858 50.2759C8.75366 49.9711 9.07721 49.4077 9.07721 48.7977V33.4361H14.169V48.3705C14.1698 49.1626 14.4831 49.9215 15.04 50.4816C15.5969 51.0417 16.3516 51.3568 17.1393 51.3575H33.2633C34.051 51.3568 34.8056 51.0417 35.3626 50.4816C35.9195 49.9216 36.2328 49.1627 36.2336 48.3705V29.9795C36.7125 29.8804 37.1429 29.6183 37.4519 29.2377C37.7611 28.8567 37.9304 28.3804 37.9308 27.8886V21.4453C38.4097 21.3462 38.8401 21.0841 39.1492 20.7035C39.4583 20.3225 39.6277 19.8462 39.628 19.3544V15.9407C39.6273 15.3749 39.4038 14.8328 39.006 14.4327C38.6082 14.0327 38.069 13.8079 37.5064 13.8071L37.5065 13.8073ZM32.839 29.9794V47.517C32.839 47.6302 32.7943 47.7388 32.7148 47.8188C32.6352 47.8988 32.5272 47.9437 32.4147 47.9437H17.9879C17.7534 47.9437 17.5636 47.7529 17.5636 47.517V33.435H20.5338C21.3215 33.4343 22.0761 33.1192 22.6331 32.5591C23.19 31.9991 23.5033 31.2402 23.5041 30.448V22.2753L27.0721 21.6772C27.8272 21.5507 28.5913 21.4874 29.3567 21.4871H31.1418V27.8877C31.1422 28.3796 31.3115 28.8558 31.6207 29.2368C31.9298 29.6174 32.3602 29.8796 32.839 29.9786V29.9794ZM1.43955 30.4488V3.99265C1.44031 3.42687 1.66383 2.88476 2.06163 2.48467C2.45944 2.08463 2.99855 1.85985 3.56115 1.85908H20.5338C21.0964 1.85984 21.6355 2.08463 22.0333 2.48467C22.4311 2.88472 22.6547 3.42687 22.6554 3.99265V30.4488C22.6547 31.0146 22.4311 31.5567 22.0333 31.9568C21.6355 32.3568 21.0964 32.5816 20.5338 32.5824H3.56115C2.99855 32.5816 2.45947 32.3568 2.06163 31.9568C1.66383 31.5567 1.44032 31.0146 1.43955 30.4488ZM6.53136 44.5308H8.22863V46.2376H6.53136V44.5308ZM6.53136 43.6774V41.9705H8.22863V43.6774H6.53136ZM6.53136 41.1171V39.4102H8.22863V41.1171H6.53136ZM6.53136 38.5568V36.85H8.22863V38.5568H6.53136ZM7.37999 49.6513C6.91135 49.6509 6.53174 49.2692 6.53136 48.7979V47.0911H8.22863V48.7979C8.22825 49.2692 7.84863 49.6509 7.37999 49.6513ZM8.22863 35.9965H6.53136V33.4363H8.22863V35.9965ZM33.2628 50.5048H17.1388C16.5762 50.504 16.0371 50.2792 15.6393 49.8792C15.2415 49.4791 15.018 48.937 15.0172 48.3712V33.4367H16.7145V47.5187C16.7152 48.2255 17.2846 48.7981 17.9874 48.7989H32.4142C33.117 48.7981 33.6864 48.2255 33.6872 47.5187V30.0231H35.3844V48.3712C35.3837 48.937 35.1601 49.4791 34.7623 49.8792C34.3645 50.2792 33.8254 50.504 33.2628 50.5048ZM35.8088 29.1691H33.2628C32.5601 29.1684 31.9907 28.5958 31.9899 27.889V21.4883H37.0817V27.889C37.0809 28.5958 36.5115 29.1684 35.8088 29.1691ZM38.779 19.3553C38.7782 20.062 38.2088 20.6346 37.506 20.6354H29.3561C28.5442 20.6354 27.7335 20.7032 26.9322 20.8369L23.5036 21.4119V13.8849L26.9322 14.4595V14.4599C27.7335 14.5936 28.5442 14.6614 29.3561 14.6614H37.506C38.2088 14.6622 38.7782 15.2348 38.779 15.9415V19.3553Z"/>
</mask>
<path d="M37.5065 13.8073H29.3566C28.5913 13.8073 27.8271 13.7436 27.0721 13.6172L23.504 13.019V3.99289C23.5033 3.20081 23.19 2.4419 22.6331 1.88177C22.0761 1.3217 21.3215 1.00662 20.5338 1.00586H3.56109C2.77345 1.00662 2.01881 1.3217 1.46181 1.88177C0.904894 2.44183 0.591577 3.20072 0.59082 3.99289V30.449C0.591578 31.2411 0.904894 32 1.46181 32.5602C2.01873 33.1202 2.77336 33.4353 3.56109 33.4361H5.68267V48.7977C5.68267 49.4077 6.00621 49.9711 6.53131 50.2759C7.0564 50.5807 7.70349 50.5807 8.22858 50.2759C8.75366 49.9711 9.07721 49.4077 9.07721 48.7977V33.4361H14.169V48.3705C14.1698 49.1626 14.4831 49.9215 15.04 50.4816C15.5969 51.0417 16.3516 51.3568 17.1393 51.3575H33.2633C34.051 51.3568 34.8056 51.0417 35.3626 50.4816C35.9195 49.9216 36.2328 49.1627 36.2336 48.3705V29.9795C36.7125 29.8804 37.1429 29.6183 37.4519 29.2377C37.7611 28.8567 37.9304 28.3804 37.9308 27.8886V21.4453C38.4097 21.3462 38.8401 21.0841 39.1492 20.7035C39.4583 20.3225 39.6277 19.8462 39.628 19.3544V15.9407C39.6273 15.3749 39.4038 14.8328 39.006 14.4327C38.6082 14.0327 38.069 13.8079 37.5064 13.8071L37.5065 13.8073ZM32.839 29.9794V47.517C32.839 47.6302 32.7943 47.7388 32.7148 47.8188C32.6352 47.8988 32.5272 47.9437 32.4147 47.9437H17.9879C17.7534 47.9437 17.5636 47.7529 17.5636 47.517V33.435H20.5338C21.3215 33.4343 22.0761 33.1192 22.6331 32.5591C23.19 31.9991 23.5033 31.2402 23.5041 30.448V22.2753L27.0721 21.6772C27.8272 21.5507 28.5913 21.4874 29.3567 21.4871H31.1418V27.8877C31.1422 28.3796 31.3115 28.8558 31.6207 29.2368C31.9298 29.6174 32.3602 29.8796 32.839 29.9786V29.9794ZM1.43955 30.4488V3.99265C1.44031 3.42687 1.66383 2.88476 2.06163 2.48467C2.45944 2.08463 2.99855 1.85985 3.56115 1.85908H20.5338C21.0964 1.85984 21.6355 2.08463 22.0333 2.48467C22.4311 2.88472 22.6547 3.42687 22.6554 3.99265V30.4488C22.6547 31.0146 22.4311 31.5567 22.0333 31.9568C21.6355 32.3568 21.0964 32.5816 20.5338 32.5824H3.56115C2.99855 32.5816 2.45947 32.3568 2.06163 31.9568C1.66383 31.5567 1.44032 31.0146 1.43955 30.4488ZM6.53136 44.5308H8.22863V46.2376H6.53136V44.5308ZM6.53136 43.6774V41.9705H8.22863V43.6774H6.53136ZM6.53136 41.1171V39.4102H8.22863V41.1171H6.53136ZM6.53136 38.5568V36.85H8.22863V38.5568H6.53136ZM7.37999 49.6513C6.91135 49.6509 6.53174 49.2692 6.53136 48.7979V47.0911H8.22863V48.7979C8.22825 49.2692 7.84863 49.6509 7.37999 49.6513ZM8.22863 35.9965H6.53136V33.4363H8.22863V35.9965ZM33.2628 50.5048H17.1388C16.5762 50.504 16.0371 50.2792 15.6393 49.8792C15.2415 49.4791 15.018 48.937 15.0172 48.3712V33.4367H16.7145V47.5187C16.7152 48.2255 17.2846 48.7981 17.9874 48.7989H32.4142C33.117 48.7981 33.6864 48.2255 33.6872 47.5187V30.0231H35.3844V48.3712C35.3837 48.937 35.1601 49.4791 34.7623 49.8792C34.3645 50.2792 33.8254 50.504 33.2628 50.5048ZM35.8088 29.1691H33.2628C32.5601 29.1684 31.9907 28.5958 31.9899 27.889V21.4883H37.0817V27.889C37.0809 28.5958 36.5115 29.1684 35.8088 29.1691ZM38.779 19.3553C38.7782 20.062 38.2088 20.6346 37.506 20.6354H29.3561C28.5442 20.6354 27.7335 20.7032 26.9322 20.8369L23.5036 21.4119V13.8849L26.9322 14.4595V14.4599C27.7335 14.5936 28.5442 14.6614 29.3561 14.6614H37.506C38.2088 14.6622 38.7782 15.2348 38.779 15.9415V19.3553Z" fill="#8CC63F"/>
<path d="M37.5065 13.8073H29.3566C28.5913 13.8073 27.8271 13.7436 27.0721 13.6172L23.504 13.019V3.99289C23.5033 3.20081 23.19 2.4419 22.6331 1.88177C22.0761 1.3217 21.3215 1.00662 20.5338 1.00586H3.56109C2.77345 1.00662 2.01881 1.3217 1.46181 1.88177C0.904894 2.44183 0.591577 3.20072 0.59082 3.99289V30.449C0.591578 31.2411 0.904894 32 1.46181 32.5602C2.01873 33.1202 2.77336 33.4353 3.56109 33.4361H5.68267V48.7977C5.68267 49.4077 6.00621 49.9711 6.53131 50.2759C7.0564 50.5807 7.70349 50.5807 8.22858 50.2759C8.75366 49.9711 9.07721 49.4077 9.07721 48.7977V33.4361H14.169V48.3705C14.1698 49.1626 14.4831 49.9215 15.04 50.4816C15.5969 51.0417 16.3516 51.3568 17.1393 51.3575H33.2633C34.051 51.3568 34.8056 51.0417 35.3626 50.4816C35.9195 49.9216 36.2328 49.1627 36.2336 48.3705V29.9795C36.7125 29.8804 37.1429 29.6183 37.4519 29.2377C37.7611 28.8567 37.9304 28.3804 37.9308 27.8886V21.4453C38.4097 21.3462 38.8401 21.0841 39.1492 20.7035C39.4583 20.3225 39.6277 19.8462 39.628 19.3544V15.9407C39.6273 15.3749 39.4038 14.8328 39.006 14.4327C38.6082 14.0327 38.069 13.8079 37.5064 13.8071L37.5065 13.8073ZM32.839 29.9794V47.517C32.839 47.6302 32.7943 47.7388 32.7148 47.8188C32.6352 47.8988 32.5272 47.9437 32.4147 47.9437H17.9879C17.7534 47.9437 17.5636 47.7529 17.5636 47.517V33.435H20.5338C21.3215 33.4343 22.0761 33.1192 22.6331 32.5591C23.19 31.9991 23.5033 31.2402 23.5041 30.448V22.2753L27.0721 21.6772C27.8272 21.5507 28.5913 21.4874 29.3567 21.4871H31.1418V27.8877C31.1422 28.3796 31.3115 28.8558 31.6207 29.2368C31.9298 29.6174 32.3602 29.8796 32.839 29.9786V29.9794ZM1.43955 30.4488V3.99265C1.44031 3.42687 1.66383 2.88476 2.06163 2.48467C2.45944 2.08463 2.99855 1.85985 3.56115 1.85908H20.5338C21.0964 1.85984 21.6355 2.08463 22.0333 2.48467C22.4311 2.88472 22.6547 3.42687 22.6554 3.99265V30.4488C22.6547 31.0146 22.4311 31.5567 22.0333 31.9568C21.6355 32.3568 21.0964 32.5816 20.5338 32.5824H3.56115C2.99855 32.5816 2.45947 32.3568 2.06163 31.9568C1.66383 31.5567 1.44032 31.0146 1.43955 30.4488ZM6.53136 44.5308H8.22863V46.2376H6.53136V44.5308ZM6.53136 43.6774V41.9705H8.22863V43.6774H6.53136ZM6.53136 41.1171V39.4102H8.22863V41.1171H6.53136ZM6.53136 38.5568V36.85H8.22863V38.5568H6.53136ZM7.37999 49.6513C6.91135 49.6509 6.53174 49.2692 6.53136 48.7979V47.0911H8.22863V48.7979C8.22825 49.2692 7.84863 49.6509 7.37999 49.6513ZM8.22863 35.9965H6.53136V33.4363H8.22863V35.9965ZM33.2628 50.5048H17.1388C16.5762 50.504 16.0371 50.2792 15.6393 49.8792C15.2415 49.4791 15.018 48.937 15.0172 48.3712V33.4367H16.7145V47.5187C16.7152 48.2255 17.2846 48.7981 17.9874 48.7989H32.4142C33.117 48.7981 33.6864 48.2255 33.6872 47.5187V30.0231H35.3844V48.3712C35.3837 48.937 35.1601 49.4791 34.7623 49.8792C34.3645 50.2792 33.8254 50.504 33.2628 50.5048ZM35.8088 29.1691H33.2628C32.5601 29.1684 31.9907 28.5958 31.9899 27.889V21.4883H37.0817V27.889C37.0809 28.5958 36.5115 29.1684 35.8088 29.1691ZM38.779 19.3553C38.7782 20.062 38.2088 20.6346 37.506 20.6354H29.3561C28.5442 20.6354 27.7335 20.7032 26.9322 20.8369L23.5036 21.4119V13.8849L26.9322 14.4595V14.4599C27.7335 14.5936 28.5442 14.6614 29.3561 14.6614H37.506C38.2088 14.6622 38.7782 15.2348 38.779 15.9415V19.3553Z" stroke="#8CC63F" stroke-width="0.6" mask="url(#path-3-outside-1_1_265)"/>
<path d="M16.7137 26.4596C17.0988 26.4592 17.4122 26.1453 17.4125 25.756V23.196C17.4122 22.8067 17.0989 22.4928 16.7139 22.4924C16.7138 22.4924 16.7138 22.4924 16.7137 22.4924M16.7137 26.4596L7.37889 26.6096C6.91025 26.6092 6.53063 26.2274 6.53026 25.7561V23.1959C6.53063 22.7246 6.91025 22.3428 7.37889 22.3424H16.7139L16.7137 22.4924M16.7137 26.4596H7.37901M16.7137 26.4596H7.37901M16.7137 22.4924H7.37901M16.7137 22.4924H7.37901M7.37901 26.4596C6.99391 26.4592 6.68057 26.1453 6.68026 25.756V23.196C6.68026 23.196 6.68026 23.1959 6.68026 23.1959C6.68061 22.8067 6.99387 22.4928 7.37889 22.4924C7.37893 22.4924 7.37897 22.4924 7.37901 22.4924M7.37901 26.4596L7.37901 22.4924M16.714 21.339H16.7139L7.37889 21.339L7.37876 21.339C6.88858 21.3394 6.41928 21.5357 6.07309 21.8839C5.72693 22.232 5.53205 22.7036 5.53164 23.1957V23.1958L5.53164 25.7561L5.53164 25.7562C5.53205 26.2484 5.72692 26.72 6.07309 27.0681C6.41929 27.4162 6.8886 27.6125 7.37876 27.6129H7.37889H16.7139H16.714C17.2042 27.6125 17.6735 27.4162 18.0197 27.0681C18.3658 26.72 18.5607 26.2484 18.5611 25.7562V25.7561V23.1958V23.1957C18.5607 22.7035 18.3658 22.232 18.0197 21.8839C17.6735 21.5357 17.2042 21.3394 16.714 21.339Z" fill="#8CC63F" stroke="#8CC63F" stroke-width="0.3"/>
</svg>
