<svg width="63" height="52" viewBox="0 0 63 52" fill="none" xmlns="http://www.w3.org/2000/svg">
<path fill-rule="evenodd" clip-rule="evenodd" d="M26.9933 39.0897H30.5485L30.3051 40.4984H27.2373L26.9933 39.0897ZM24.9851 2.11174H33.5945C38.3417 2.11174 42.2039 5.97393 42.2039 10.7212V28.4059C42.2039 33.1531 38.3417 37.0153 33.5945 37.0153L24.9851 37.0158V2.11174ZM17.911 31.0668V8.05969H22.9113V31.0668H17.911ZM3.69056 26.9675C3.05412 26.9675 2.53674 26.4502 2.53674 25.8142C2.53674 25.1778 3.05412 24.6609 3.69056 24.6609H15.8374V26.9681L3.69056 26.9675ZM3.69056 14.4682C3.05412 14.4682 2.53674 13.9498 2.53674 13.3134C2.53674 12.6784 3.05412 12.16 3.69056 12.16H15.8374V14.4681L3.69056 14.4682ZM62.1173 2.18176C61.971 1.62852 61.403 1.29907 60.8501 1.44682C53.9894 3.26866 53.0431 8.77569 53.0431 14.4554V36.9362C53.0431 43.5742 47.6437 48.9746 41.0057 48.9746C36.5525 48.9746 32.457 46.4551 30.3808 42.5724H31.1779C31.6819 42.5724 32.1137 42.2095 32.1988 41.7117L32.6526 39.0899H33.5941C39.4856 39.0899 44.2773 34.2973 44.2773 28.4071V10.7211C44.2773 4.8306 39.4855 0.0379639 33.5941 0.0379639L23.9475 0.038442C23.3746 0.038442 22.9108 0.50227 22.9108 1.07512V5.98686H16.8745C16.3016 5.98686 15.8369 6.45069 15.8369 7.02401V10.0862H3.69001C1.91028 10.0862 0.462891 11.5336 0.462891 13.3134C0.462891 15.0941 1.91028 16.542 3.69001 16.542H15.8369V22.588L3.69001 22.5875C1.91028 22.5875 0.462891 24.0349 0.462891 25.8146C0.462891 27.5943 1.91028 29.0417 3.69001 29.0417H15.8369V32.1044C15.8369 32.6773 16.3016 33.1411 16.8745 33.1411H22.9108V38.0529C22.9108 38.6257 23.3746 39.0895 23.9475 39.0895H24.8895L25.3418 41.7113C25.4289 42.2091 25.8592 42.572 26.3646 42.572H28.0779C30.3162 47.6707 35.4206 51.048 41.0057 51.048C48.7869 51.048 55.1173 44.7185 55.1173 36.9353L55.1177 14.4545C55.1177 8.68866 56.1664 4.83663 61.3822 3.44996C61.9369 3.30221 62.2664 2.73414 62.1181 2.18142L62.1173 2.18176Z" fill="#8CC63F"/>
</svg>
