<svg width="52" height="52" viewBox="0 0 52 52" fill="none" xmlns="http://www.w3.org/2000/svg">
<path d="M14.8193 17.3768C16.1766 17.3768 17.281 16.2723 17.281 14.9151C17.281 13.5578 16.1766 12.4534 14.8193 12.4534C13.462 12.4534 12.3576 13.5578 12.3576 14.9151C12.3576 16.2723 13.462 17.3768 14.8193 17.3768ZM14.8193 14.0945C15.2721 14.0945 15.6399 14.463 15.6399 14.9151C15.6399 15.3671 15.2721 15.7356 14.8193 15.7356C14.3665 15.7356 13.9987 15.3671 13.9987 14.9151C13.9987 14.463 14.3665 14.0945 14.8193 14.0945Z" fill="#8CC63F"/>
<path d="M21.3836 17.3768C22.7408 17.3768 23.8453 16.2723 23.8453 14.9151C23.8453 13.5578 22.7408 12.4534 21.3836 12.4534C20.0263 12.4534 18.9219 13.5578 18.9219 14.9151C18.9219 16.2723 20.0263 17.3768 21.3836 17.3768ZM21.3836 14.0945C21.8363 14.0945 22.2041 14.463 22.2041 14.9151C22.2041 15.3671 21.8363 15.7356 21.3836 15.7356C20.9308 15.7356 20.563 15.3671 20.563 14.9151C20.563 14.463 20.9308 14.0945 21.3836 14.0945Z" fill="#8CC63F"/>
<path d="M21.3836 25.5823C20.0263 25.5823 18.9219 26.6867 18.9219 28.044C18.9219 29.4012 20.0263 30.5057 21.3836 30.5057C22.7408 30.5057 23.8453 29.4012 23.8453 28.044C23.8453 26.6867 22.7408 25.5823 21.3836 25.5823ZM21.3836 28.8645C20.9308 28.8645 20.563 28.4967 20.563 28.044C20.563 27.5912 20.9308 27.2234 21.3836 27.2234C21.8363 27.2234 22.2041 27.5912 22.2041 28.044C22.2041 28.4967 21.8363 28.8645 21.3836 28.8645Z" fill="#8CC63F"/>
<path d="M27.947 17.3768C29.3043 17.3768 30.4087 16.2723 30.4087 14.9151C30.4087 13.5578 29.3043 12.4534 27.947 12.4534C26.5898 12.4534 25.4854 13.5578 25.4854 14.9151C25.4854 16.2723 26.5898 17.3768 27.947 17.3768ZM27.947 14.0945C28.3998 14.0945 28.7676 14.463 28.7676 14.9151C28.7676 15.3671 28.3998 15.7356 27.947 15.7356C27.4943 15.7356 27.1265 15.3671 27.1265 14.9151C27.1265 14.463 27.4943 14.0945 27.947 14.0945Z" fill="#8CC63F"/>
<path d="M30.41 19.0178H12.3576V23.9412H30.41V19.0178ZM28.7689 22.3001H13.9987V20.659H28.7689V22.3001Z" fill="#8CC63F"/>
<path d="M49.2844 28.8645H46.0021C45.5494 28.8645 45.1816 28.4967 45.1816 28.044V23.1206C46.0868 23.1206 46.8227 22.3846 46.8227 21.4794V17.3766C46.8227 15.1142 44.9823 13.2738 42.7199 13.2738H40.2582V11.6327C40.2582 10.5644 39.5699 9.66182 38.6171 9.32187V7.52985H41.8993V5.06815C41.8993 2.80574 40.0589 0.965332 37.7965 0.965332H4.97392C2.7115 0.965332 0.871094 2.80574 0.871094 5.06815V7.52985H4.15335V9.32187C3.20056 9.66182 2.51222 10.5644 2.51222 11.6327V47.7375C2.51222 49.9999 4.35263 51.8403 6.61505 51.8403H36.1554C38.4178 51.8403 40.2582 49.9999 40.2582 47.7375V44.4553H41.0788C42.436 44.4553 43.5405 43.3508 43.5405 41.9936V41.173H44.361C44.8138 41.173 45.1816 41.5408 45.1816 41.9936V46.0964C45.1816 47.4536 46.286 48.5581 47.6433 48.5581H49.2844C50.6417 48.5581 51.7461 47.4536 51.7461 46.0964V31.3262C51.7461 29.969 50.6417 28.8645 49.2844 28.8645ZM2.51222 5.06815C2.51222 3.71089 3.61666 2.60646 4.97392 2.60646H37.7965C39.1538 2.60646 40.2582 3.71089 40.2582 5.06815V5.88872H2.51222V5.06815ZM36.9759 7.52985V9.17098H5.79448V7.52985H36.9759ZM9.07674 10.8121H33.6937V23.1206C33.6937 28.0974 29.6443 32.1468 24.6675 32.1468H18.1029C13.1261 32.1468 9.07674 28.0974 9.07674 23.1206V10.8121ZM22.2058 45.2758H27.1292V50.1992H22.2058V45.2758ZM20.5646 50.1992H15.6413V45.2758H20.5646V50.1992ZM28.7703 45.2758H33.6937V50.1992H28.7703V45.2758ZM33.6937 43.6347H28.7703V38.7113H31.232C32.5892 38.7113 33.6937 39.8157 33.6937 41.173V43.6347ZM27.1292 43.6347H22.2058V38.7113H27.1292V43.6347ZM20.5646 43.6347H15.6413V38.7113H20.5646V43.6347ZM14.0001 43.6347H9.07674V41.173C9.07674 39.8157 10.1812 38.7113 11.5384 38.7113H14.0001V43.6347ZM9.07674 45.2758H14.0001V50.1992H9.07674V45.2758ZM38.6171 47.7375C38.6171 49.0948 37.5126 50.1992 36.1554 50.1992H35.3348V41.173C35.3348 38.9106 33.4944 37.0702 31.232 37.0702H11.5384C9.27602 37.0702 7.43561 38.9106 7.43561 41.173V50.1992H6.61505C5.25778 50.1992 4.15335 49.0948 4.15335 47.7375V11.6327C4.15335 11.1806 4.52114 10.8121 4.97392 10.8121H7.43561V23.1206C7.43561 29.0023 12.2212 33.7879 18.1029 33.7879H24.6675C30.5492 33.7879 35.3348 29.0023 35.3348 23.1206V10.8121H37.7965C38.2493 10.8121 38.6171 11.1806 38.6171 11.6327V47.7375ZM42.7199 14.9149C44.0771 14.9149 45.1816 16.0194 45.1816 17.3766V21.4794H43.5405V18.1972C43.5405 17.292 42.8045 16.5561 41.8993 16.5561H40.2582V14.9149H42.7199ZM41.8993 41.9936C41.8993 42.4463 41.5315 42.8141 41.0788 42.8141H40.2582V37.8907H41.0788C41.5315 37.8907 41.8993 38.2585 41.8993 38.7113V41.9936ZM50.105 46.0964C50.105 46.5492 49.7372 46.9169 49.2844 46.9169H47.6433C47.1905 46.9169 46.8227 46.5492 46.8227 46.0964V41.9936C46.8227 40.6363 45.7183 39.5319 44.361 39.5319H43.5405V38.7113C43.5405 37.354 42.436 36.2496 41.0788 36.2496H40.2582V18.1972H41.8993V21.4794C41.8993 22.3846 42.6353 23.1206 43.5405 23.1206V28.044C43.5405 29.4012 44.6449 30.5057 46.0021 30.5057H49.2844C49.7372 30.5057 50.105 30.8734 50.105 31.3262V46.0964Z" fill="#8CC63F"/>
</svg>
