<svg width="52" height="51" viewBox="0 0 52 51" fill="none" xmlns="http://www.w3.org/2000/svg">
<path d="M49.372 45.155V25.978C49.372 25.3146 49.107 24.6784 48.6353 24.2091C48.1636 23.7401 47.5235 23.4766 46.8563 23.4766H39.3093V13.9404L39.7118 14.1839V14.1836C40.1067 14.4139 40.6141 14.2865 40.8521 13.8981C41.09 13.5094 40.9707 13.0028 40.5839 12.7599L38.9168 11.7503L38.9067 11.7426L21.297 1.08703C21.0292 0.924766 20.693 0.924766 20.4252 1.08703L2.81559 11.7426L2.80541 11.7503L1.13833 12.7599C0.944249 12.8726 0.804217 13.0586 0.749124 13.2753C0.694023 13.492 0.729119 13.7216 0.845986 13.9128C0.962856 14.1037 1.15202 14.2398 1.37102 14.2907C1.59002 14.3417 1.82025 14.3033 2.01047 14.1836L2.41302 13.9404V48.4898C2.41302 49.1532 2.67799 49.7893 3.14968 50.2587C3.62137 50.7277 4.26151 50.9911 4.9287 50.9911H49.3715C49.8165 50.9911 50.2429 50.8156 50.5574 50.5026C50.8722 50.1899 51.0487 49.7659 51.0487 49.3235V46.8222C51.0487 46.38 50.8722 45.9557 50.5574 45.6431C50.2429 45.3304 49.8165 45.1549 49.3715 45.1549L49.372 45.155ZM47.6951 25.978V45.155H34.2776V25.978C34.2776 25.5173 34.6531 25.1443 35.1164 25.1443H46.8556C47.0781 25.1443 47.2915 25.2319 47.4487 25.3882C47.6059 25.5449 47.6944 25.7567 47.6944 25.978L47.6951 25.978ZM9.12096 49.3233V29.3127H19.1836V49.3233H9.12096ZM20.861 49.3233V29.3127C20.861 28.8706 20.6845 28.4463 20.3697 28.1336C20.0552 27.821 19.6288 27.6455 19.1838 27.6455H9.12116C8.6765 27.6455 8.24974 27.821 7.93529 28.1336C7.62085 28.4463 7.44431 28.8706 7.44431 29.3127V49.3233H4.92864C4.46538 49.3233 4.08986 48.9502 4.08986 48.4896V12.9254L20.8613 2.77539L37.6327 12.9254V23.4765H35.117C34.4498 23.4765 33.8096 23.7399 33.338 24.2089C32.8663 24.6783 32.6013 25.3144 32.6013 25.9778V33.4817H31.7625C31.0953 33.4817 30.4555 33.7452 29.9839 34.2142C29.5122 34.6835 29.2468 35.3197 29.2468 35.9831V41.8194C29.2468 42.28 28.8717 42.6534 28.4084 42.6534C27.9452 42.6534 27.57 42.28 27.57 41.8194V33.4818C27.57 33.0211 27.1944 32.6481 26.7312 32.6481C26.2683 32.6481 25.8928 33.0211 25.8928 33.4818V41.8194C25.8928 42.713 26.3722 43.539 27.1506 43.9857C27.929 44.4323 28.8878 44.4323 29.6663 43.9857C30.4447 43.539 30.9241 42.713 30.9241 41.8194V35.9831C30.9241 35.5225 31.2996 35.1494 31.7625 35.1494H32.601L32.6013 45.1547C32.1563 45.1547 31.7299 45.3302 31.4154 45.6429C31.1006 45.9555 30.9241 46.3799 30.9241 46.822V49.3233L20.861 49.3233ZM38.4707 49.3233H32.6009V46.822H49.3714V49.3233H38.4707Z" fill="#8CC63F"/>
<path d="M35.9552 28.4792V31.8141C35.9552 32.2566 36.1317 32.6806 36.4465 32.9932C36.761 33.3063 37.1874 33.4818 37.6324 33.4818H44.341H44.3406C44.7856 33.4818 45.212 33.3063 45.5265 32.9932C45.8413 32.6806 46.0178 32.2566 46.0178 31.8141V28.4792C46.0178 28.037 45.8413 27.6127 45.5265 27.3001C45.212 26.9874 44.7856 26.8115 44.3406 26.8115H37.6324C37.1874 26.8115 36.761 26.9874 36.4465 27.3001C36.1317 27.6127 35.9552 28.0371 35.9552 28.4792ZM44.3406 31.8141H37.6321L37.6324 28.4792H44.341L44.3406 31.8141Z" fill="#8CC63F"/>
<path d="M20.861 10.1365C19.3041 10.1365 17.8112 10.7513 16.7102 11.8457C15.6096 12.9404 14.9912 14.4248 14.9912 15.9728C14.9912 17.5207 15.6096 19.0052 16.7102 20.0998C17.8112 21.1942 19.3041 21.809 20.861 21.809C22.4178 21.809 23.9108 21.1942 25.0117 20.0998C26.1123 19.0052 26.7307 17.5207 26.7307 15.9728C26.729 14.4255 26.1099 12.9421 25.0093 11.8481C23.9091 10.7538 22.4171 10.1382 20.861 10.1365ZM24.97 15.1391H21.6994V11.8872C22.5045 12.0523 23.2433 12.4483 23.8244 13.0262C24.4055 13.6041 24.8039 14.3386 24.97 15.1391ZM20.0225 11.8872V15.1391H16.752C16.918 14.3386 17.3163 13.604 17.8975 13.0262C18.4787 12.4484 19.2174 12.0523 20.0225 11.8872ZM16.752 16.8064H20.0225V20.0583C19.2174 19.8932 18.4786 19.4972 17.8975 18.9193C17.3164 18.3414 16.918 17.6069 16.752 16.8064ZM21.6994 20.0583V16.8064H24.97C24.8039 17.6069 24.4056 18.3415 23.8244 18.9193C23.2432 19.4971 22.5045 19.8932 21.6994 20.0583Z" fill="#8CC63F"/>
<path d="M42.6637 38.4844H40.876L41.6842 37.2795C41.9411 36.8967 41.8372 36.3789 41.4519 36.1231C41.0665 35.8677 40.5457 35.971 40.2888 36.3541L38.6116 38.8554C38.44 39.1112 38.4239 39.4403 38.5699 39.7118C38.7158 39.9829 39.0001 40.1522 39.3093 40.1522H41.0971L40.2888 41.3571V41.3567C40.0319 41.7399 40.1358 42.2577 40.5211 42.5131C40.9065 42.7689 41.4273 42.6653 41.6842 42.2821L43.3614 39.7808C43.533 39.525 43.5492 39.196 43.4032 38.9248C43.2572 38.6537 42.9729 38.4844 42.6637 38.4844Z" fill="#8CC63F"/>
<path d="M11.6373 34.3156C11.1743 34.3156 10.7988 34.6889 10.7988 35.1496V36.8172V36.8169C10.7988 37.2775 11.1743 37.6509 11.6373 37.6509C12.1005 37.6509 12.476 37.2775 12.476 36.8169V35.1496C12.476 34.9283 12.3876 34.7162 12.2304 34.5598C12.0731 34.4035 11.8598 34.3156 11.6373 34.3156Z" fill="#8CC63F"/>
</svg>
