<svg width="41" height="41" viewBox="0 0 41 41" fill="none" xmlns="http://www.w3.org/2000/svg">
<path fill-rule="evenodd" clip-rule="evenodd" d="M9.09961 2.10678H28.0065L33.5941 7.75069V35.097H9.09961V2.10678Z" fill="white"/>
<path d="M33.5939 35.633H9.09934C8.80324 35.633 8.56348 35.3933 8.56348 35.0971V2.1068C8.56348 1.81071 8.80324 1.57086 9.09934 1.57086H28.0062C28.1493 1.57086 28.2861 1.62781 28.3872 1.72969L33.9749 7.3736C34.0742 7.47399 34.13 7.60953 34.13 7.7507V35.097C34.1301 35.3932 33.89 35.633 33.5939 35.633ZM9.63535 34.5612H33.0582V7.97117L27.7829 2.64274H9.63535V34.5612Z" fill="#4C8CF9"/>
<path d="M35.3834 13.9933H10.8887V22.2433H35.3834V13.9933Z" fill="#4C8CF9"/>
<path d="M17.4028 20.2989H16.5391V19.5319H17.4028V20.2989ZM18.2873 20.2989V15.927H19.7753C20.306 15.927 20.743 16.0955 21.0864 16.4421C21.4297 16.7784 21.596 17.2197 21.596 17.7559V18.4808C21.596 19.017 21.4296 19.4584 21.0864 19.7949C20.743 20.1313 20.306 20.2989 19.7753 20.2989H18.2873ZM19.1614 16.6102V19.6265H19.7338C20.0458 19.6265 20.2851 19.5214 20.462 19.311C20.6389 19.1009 20.7327 18.8174 20.7327 18.4808V17.7452C20.7327 17.4089 20.6389 17.1358 20.462 16.9257C20.2851 16.7156 20.0458 16.6102 19.7338 16.6102H19.1614ZM25.7687 18.5123C25.7687 19.0486 25.592 19.4899 25.259 19.8366C24.9259 20.1943 24.489 20.3621 23.9477 20.3621C23.4171 20.3621 22.9801 20.1943 22.6471 19.8366C22.3145 19.4899 22.1477 19.0487 22.1477 18.5123V17.7244C22.1477 17.1881 22.3145 16.7472 22.6471 16.3895C22.9802 16.0427 23.4171 15.8639 23.9477 15.8639C24.4786 15.8639 24.9259 16.0428 25.259 16.3895C25.592 16.7472 25.7687 17.1881 25.7687 17.7244V18.5123ZM24.8948 17.7136C24.8948 17.367 24.8116 17.0934 24.6453 16.873C24.4786 16.6525 24.2395 16.5471 23.9477 16.5471C23.6462 16.5471 23.4171 16.6525 23.2612 16.873C23.0945 17.0934 23.0113 17.367 23.0113 17.7136V18.5123C23.0113 18.8593 23.0945 19.1433 23.2612 19.3641C23.4279 19.5741 23.6566 19.6896 23.9477 19.6896C24.2495 19.6896 24.4786 19.5741 24.6453 19.3641C24.8116 19.1432 24.8948 18.8593 24.8948 18.5123V17.7136ZM29.7127 18.807L29.7228 18.8277C29.7228 19.3009 29.5877 19.6688 29.2962 19.9523C28.9944 20.2258 28.5885 20.3621 28.0688 20.3621C27.5482 20.3621 27.132 20.1943 26.799 19.858C26.4763 19.5214 26.31 19.0802 26.31 18.5546V17.682C26.31 17.1565 26.4763 16.7155 26.7886 16.379C27.1113 16.0427 27.517 15.8638 28.0268 15.8638C28.5678 15.8638 28.9843 16.0008 29.2862 16.2847C29.5876 16.5578 29.7336 16.936 29.7228 17.4196V17.4404H28.8696C28.8696 17.1465 28.8072 16.9256 28.6721 16.7783C28.5262 16.6209 28.3183 16.547 28.0268 16.547C27.767 16.547 27.5587 16.6524 27.4127 16.8625C27.2568 17.0726 27.1841 17.3458 27.1841 17.682V18.5438C27.1841 18.88 27.2568 19.1535 27.4234 19.374C27.5794 19.5844 27.7977 19.6895 28.0688 19.6895C28.3391 19.6895 28.547 19.6159 28.6721 19.4686C28.8072 19.3216 28.8696 19.1008 28.8696 18.8068H29.7127V18.807Z" fill="#FEFEFE"/>
<path d="M21.3201 11.5513C20.2254 11.5513 19.2741 11.1544 18.7745 10.4895C18.5967 10.253 18.6443 9.91702 18.8811 9.7392C19.1177 9.56069 19.4536 9.60905 19.6316 9.84569C19.9253 10.2368 20.572 10.4795 21.32 10.4795C21.3203 10.4795 21.3207 10.4795 21.3214 10.4795C22.0785 10.4791 22.7776 10.2246 23.0612 9.84608C23.239 9.60912 23.5749 9.56139 23.8115 9.73889C24.0484 9.91631 24.0964 10.2522 23.919 10.4892C23.4279 11.1438 22.4331 11.551 21.3222 11.5514C21.3215 11.5513 21.3208 11.5513 21.3201 11.5513Z" fill="#4C8CF9"/>
<path d="M11.9818 18.3338C11.9799 18.3338 11.9778 18.3338 11.9757 18.3338C8.71908 18.2983 6.78744 17.4491 6.23431 15.8098C5.5147 13.6764 7.56517 10.9144 8.77001 9.97626C9.00376 9.79485 9.34056 9.8368 9.52212 10.0699C9.70408 10.3035 9.66212 10.6402 9.42853 10.8223C8.39337 11.6281 6.7329 13.9339 7.25001 15.4671C7.7379 16.9132 10.0956 17.2413 11.9875 17.262C12.2835 17.2652 12.5208 17.5079 12.5175 17.8037C12.5143 18.0976 12.2751 18.3338 11.9818 18.3338Z" fill="#4C8CF9"/>
<path fill-rule="evenodd" clip-rule="evenodd" d="M28.0068 7.75069H33.5945L28.0068 2.10678V7.75069Z" fill="#D4E4FF"/>
<path d="M33.5942 8.28664H28.0066C27.7105 8.28664 27.4707 8.04679 27.4707 7.7507V2.10679C27.4707 1.88953 27.602 1.69383 27.8027 1.61101C28.0041 1.52851 28.235 1.57547 28.3877 1.72968L33.9753 7.37359C34.1277 7.52742 34.1721 7.7575 34.0889 7.95718C34.0057 8.15687 33.8107 8.28664 33.5942 8.28664ZM28.5424 7.21484H32.3094L28.5424 3.40992V7.21484Z" fill="#4C8CF9"/>
<path d="M19.4329 38.6635C19.4036 38.6635 19.3738 38.6614 19.3436 38.6563L17.5851 38.3621C17.3268 38.3186 17.1377 38.0954 17.1377 37.8332V35.097C17.1377 34.801 17.3775 34.5612 17.6736 34.5612C17.9697 34.5612 18.2095 34.801 18.2095 35.097V37.3794L19.5206 37.5989C19.8126 37.648 20.0096 37.924 19.9607 38.2161C19.9171 38.4782 19.69 38.6635 19.4329 38.6635Z" fill="#4C8CF9"/>
<path d="M26.1449 38.6635C26.1155 38.6635 26.0854 38.6614 26.0554 38.6563L24.297 38.3621C24.0385 38.3186 23.8496 38.0954 23.8496 37.8332V35.097C23.8496 34.801 24.0894 34.5612 24.3855 34.5612C24.6816 34.5612 24.9214 34.801 24.9214 35.097V37.3794L26.2323 37.5989C26.5245 37.648 26.7213 37.924 26.6726 38.2161C26.6289 38.4782 26.4016 38.6635 26.1449 38.6635Z" fill="#4C8CF9"/>
<path fill-rule="evenodd" clip-rule="evenodd" d="M23.4587 5.20696C23.9477 5.07071 24.4891 5.28079 24.7493 5.74329C25.072 6.30032 24.8845 7.00446 24.3327 7.31985C23.7814 7.6454 23.0845 7.4561 22.7719 6.89938C22.5224 6.46813 22.5847 5.93259 22.8866 5.57517C22.9906 5.71173 23.1777 5.75368 23.3341 5.66946C23.4902 5.57517 23.5527 5.3647 23.4587 5.20696Z" fill="#4C8CF9"/>
<path fill-rule="evenodd" clip-rule="evenodd" d="M18.6103 5.20696C19.0992 5.07071 19.6403 5.28079 19.911 5.74329C20.2231 6.30032 20.0358 7.00446 19.4842 7.31985C18.9433 7.6454 18.2356 7.4561 17.9234 6.89938C17.6737 6.46813 17.7361 5.93259 18.0379 5.57517C18.1419 5.71173 18.3396 5.75368 18.4853 5.66946C18.6518 5.57517 18.7039 5.3647 18.6103 5.20696Z" fill="#4C8CF9"/>
<path d="M29.9312 25.617H13.5945C13.2984 25.617 13.0586 25.3772 13.0586 25.0812C13.0586 24.785 13.2984 24.5452 13.5945 24.5452H29.9312C30.2273 24.5452 30.4671 24.785 30.4671 25.0812C30.4671 25.3772 30.2273 25.617 29.9312 25.617Z" fill="#4C8CF9"/>
<path d="M29.9312 28.3917H13.5945C13.2984 28.3917 13.0586 28.1519 13.0586 27.8558C13.0586 27.5597 13.2984 27.3198 13.5945 27.3198H29.9312C30.2273 27.3198 30.4671 27.5597 30.4671 27.8558C30.4671 28.1519 30.2273 28.3917 29.9312 28.3917Z" fill="#4C8CF9"/>
<path d="M24.208 31.1768H13.5945C13.2984 31.1768 13.0586 30.937 13.0586 30.6409C13.0586 30.3448 13.2984 30.1049 13.5945 30.1049H24.208C24.5041 30.1049 24.7443 30.3448 24.7443 30.6409C24.7443 30.9369 24.5041 31.1768 24.208 31.1768Z" fill="#4C8CF9"/>
</svg>
