<svg width="26" height="26" viewBox="0 0 26 26" fill="none" xmlns="http://www.w3.org/2000/svg">
<g clip-path="url(#clip0_9_195)">
<path fill-rule="evenodd" clip-rule="evenodd" d="M7.87998 5.33578C8.04677 5.33581 8.209 5.39017 8.34214 5.49063C8.47528 5.59108 8.57208 5.73217 8.61789 5.89254L9.44995 8.80528C9.62911 9.43257 9.96521 10.0038 10.4265 10.4651C10.8878 10.9264 11.4591 11.2625 12.0864 11.4417L14.9991 12.2738C15.1594 12.3197 15.3003 12.4165 15.4007 12.5496C15.501 12.6828 15.5553 12.8449 15.5553 13.0117C15.5553 13.1784 15.501 13.3406 15.4007 13.4737C15.3003 13.6068 15.1594 13.7037 14.9991 13.7496L12.0864 14.5816C11.4591 14.7608 10.8878 15.0969 10.4265 15.5582C9.96521 16.0195 9.62911 16.5908 9.44995 17.218L8.61789 20.1308C8.57198 20.2911 8.47514 20.432 8.34201 20.5324C8.20888 20.6327 8.04669 20.687 7.87998 20.687C7.71327 20.687 7.55109 20.6327 7.41795 20.5324C7.28482 20.432 7.18798 20.2911 7.14207 20.1308L6.31001 17.218C6.13085 16.5908 5.79476 16.0195 5.33346 15.5582C4.87216 15.0969 4.30089 14.7608 3.6736 14.5816L0.760855 13.7496C0.600588 13.7037 0.459624 13.6068 0.359276 13.4737C0.258928 13.3406 0.204651 13.1784 0.204651 13.0117C0.204651 12.8449 0.258928 12.6828 0.359276 12.5496C0.459624 12.4165 0.600588 12.3197 0.760855 12.2738L3.6736 11.4417C4.30089 11.2625 4.87216 10.9264 5.33346 10.4651C5.79476 10.0038 6.13085 9.43257 6.31001 8.80528L7.14207 5.89254C7.18788 5.73217 7.28468 5.59108 7.41782 5.49063C7.55096 5.39017 7.7132 5.33581 7.87998 5.33578ZM17.091 2.26543C17.2623 2.26533 17.4286 2.3225 17.5636 2.42783C17.6987 2.53317 17.7946 2.68063 17.8361 2.84675L18.1002 3.90704C18.3417 4.86909 19.0929 5.6203 20.055 5.86183L21.1152 6.12588C21.2817 6.16711 21.4295 6.26288 21.5352 6.39792C21.6409 6.53296 21.6983 6.69949 21.6983 6.87096C21.6983 7.04243 21.6409 7.20896 21.5352 7.344C21.4295 7.47903 21.2817 7.5748 21.1152 7.61603L20.055 7.88008C19.0929 8.12161 18.3417 8.87283 18.1002 9.83487L17.8361 10.8952C17.7949 11.0616 17.6991 11.2094 17.5641 11.3151C17.429 11.4208 17.2625 11.4782 17.091 11.4782C16.9196 11.4782 16.753 11.4208 16.618 11.3151C16.483 11.2094 16.3872 11.0616 16.346 10.8952L16.0819 9.83487C15.9638 9.36248 15.7196 8.93106 15.3752 8.58675C15.0309 8.24243 14.5995 7.99817 14.1271 7.88008L13.0668 7.61603C12.9004 7.5748 12.7525 7.47903 12.6469 7.344C12.5412 7.20896 12.4838 7.04243 12.4838 6.87096C12.4838 6.69949 12.5412 6.53296 12.6469 6.39792C12.7525 6.26288 12.9004 6.16711 13.0668 6.12588L14.1271 5.86183C14.5995 5.74374 15.0309 5.49948 15.3752 5.15517C15.7196 4.81085 15.9638 4.37944 16.0819 3.90704L16.346 2.84675C16.3875 2.68063 16.4834 2.53317 16.6184 2.42783C16.7534 2.3225 16.9198 2.26533 17.091 2.26543ZM15.5559 16.082C15.7171 16.0819 15.8742 16.1326 16.005 16.2268C16.1358 16.3211 16.2336 16.4541 16.2846 16.607L16.6878 17.8178C16.8413 18.2753 17.1995 18.6355 17.658 18.788L18.8688 19.1923C19.0212 19.2435 19.1538 19.3412 19.2477 19.4718C19.3416 19.6024 19.3921 19.7591 19.3921 19.92C19.3921 20.0808 19.3416 20.2375 19.2477 20.3681C19.1538 20.4987 19.0212 20.5964 18.8688 20.6476L17.658 21.0519C17.2006 21.2054 16.8403 21.5636 16.6878 22.0221L16.2835 23.2329C16.2324 23.3853 16.1346 23.5179 16.004 23.6118C15.8734 23.7056 15.7167 23.7562 15.5559 23.7562C15.395 23.7562 15.2383 23.7056 15.1077 23.6118C14.9772 23.5179 14.8794 23.3853 14.8282 23.2329L14.4239 22.0221C14.3485 21.7962 14.2216 21.591 14.0532 21.4226C13.8848 21.2542 13.6796 21.1273 13.4537 21.0519L12.243 20.6476C12.0905 20.5964 11.958 20.4987 11.8641 20.3681C11.7702 20.2375 11.7197 20.0808 11.7197 19.92C11.7197 19.7591 11.7702 19.6024 11.8641 19.4718C11.958 19.3412 12.0905 19.2435 12.243 19.1923L13.4537 18.788C13.9112 18.6345 14.2714 18.2763 14.4239 17.8178L14.8282 16.607C14.8791 16.4543 14.9767 16.3214 15.1073 16.2271C15.2379 16.1329 15.3948 16.0821 15.5559 16.082Z" fill="white"/>
</g>
<defs>
<clipPath id="clip0_9_195">
<rect width="24.5628" height="24.5628" fill="white" transform="translate(0.669006 0.730255)"/>
</clipPath>
</defs>
</svg>
